<?xml version="1.0" standalone="no"?>
<!DOCTYPE svg PUBLIC "-//W3C//DTD SVG 1.1//EN" "http://www.w3.org/Graphics/SVG/1.1/DTD/svg11.dtd" >
<svg xmlns="http://www.w3.org/2000/svg" xmlns:xlink="http://www.w3.org/1999/xlink" version="1.1">
<metadata></metadata>
<defs>
<font id="red_roseregular" horiz-adv-x="1568" >
<font-face units-per-em="2048" ascent="1638" descent="-410" />
<missing-glyph horiz-adv-x="491" />
<glyph unicode="&#xfb01;" horiz-adv-x="1091" />
<glyph unicode="&#xfb02;" horiz-adv-x="1153" />
<glyph horiz-adv-x="0" />
<glyph horiz-adv-x="682" />
<glyph horiz-adv-x="0" />
<glyph horiz-adv-x="0" />
<glyph unicode="&#xd;" horiz-adv-x="491" />
<glyph unicode=" "  horiz-adv-x="491" />
<glyph unicode="&#x09;" horiz-adv-x="491" />
<glyph unicode="&#xa0;" horiz-adv-x="491" />
<glyph unicode="!" horiz-adv-x="618" d="M164 1147q0 59 18.5 80.5t104.5 21.5q57 0 81.5 -9t31 -31.5t6.5 -63.5q0 -33 -5.5 -100.5t-15.5 -153.5t-22.5 -173t-26.5 -162t-27.5 -121t-25.5 -46t-25.5 46t-27 120t-25.5 162t-21.5 173t-14.5 153.5t-5 103.5zM205 92q0 47 31.5 80t93.5 33q61 0 93 -33t32 -80 q0 -45 -33 -78.5t-92 -33.5t-92 33.5t-33 78.5z" />
<glyph unicode="&#x22;" horiz-adv-x="614" d="M82 1149q0 59 63 59h39q33 0 47.5 -17t14.5 -40q0 -29 -7.5 -83t-18.5 -111.5t-25.5 -97.5t-30.5 -40t-30.5 37t-26 91t-18.5 109.5t-7 92.5zM369 1149q0 59 63 59h39q33 0 47.5 -17t14.5 -40q0 -29 -7.5 -83t-18.5 -111.5t-25.5 -97.5t-30.5 -40t-30.5 37t-26 91 t-18.5 109.5t-7 92.5z" />
<glyph unicode="#" horiz-adv-x="1415" d="M102 0q23 0 58 26.5t67 96.5q12 29 40 93.5t63 148.5q-100 0 -154.5 -7.5t-66.5 -13.5q14 23 27.5 64t13.5 79h231q25 59 51.5 122t50.5 124h-6q-113 0 -172 -7t-74 -13q14 23 27.5 63.5t13.5 79.5h260q37 88 65 154.5t40 95.5q29 66 29 94.5t-11 28.5h252q-20 0 -57 -29 t-70 -96q-12 -27 -40.5 -93.5t-65.5 -154.5h264q37 88 64.5 154.5t39.5 95.5q29 66 29 94.5t-10 28.5h252q-20 0 -57 -29t-70 -96q-12 -27 -41 -93.5t-66 -154.5h25q104 0 152.5 7t52.5 14q-14 -20 -27.5 -60.5t-13.5 -83.5h-238q-27 -59 -52.5 -122.5t-49.5 -123.5h53 q104 0 152.5 7.5t52.5 13.5q-14 -20 -27.5 -60t-13.5 -83h-266q-37 -86 -64 -150.5t-39 -91.5q-31 -66 -31 -94.5t13 -28.5h-250q23 0 57.5 26.5t67.5 96.5q12 29 39.5 93.5t62.5 148.5h-262q-37 -86 -63.5 -150.5t-38.5 -91.5q-31 -66 -31 -94.5t12 -28.5h-250zM522 487 h264q25 59 51.5 122t51.5 124h-264q-27 -59 -52.5 -122.5t-50.5 -123.5z" />
<glyph unicode="$" horiz-adv-x="1241" d="M82 127l41 195v63q14 -47 65.5 -99.5t141.5 -92t223 -50.5v402q-240 2 -345.5 87t-105.5 263q0 94 44 169t143.5 123t263.5 58q-2 47 -8 74t-13 33h211q-12 -6 -25 -32t-18 -75q172 -8 278.5 -49t141.5 -78l-41 -164v-59q-20 55 -112.5 114.5t-266.5 71.5v-362h2 q143 0 245 -33t157 -110.5t55 -215.5q0 -174 -113.5 -271t-345.5 -109q2 -45 9.5 -71t13.5 -32h-211q12 6 24.5 30.5t16.5 72.5q-215 8 -329.5 56t-141.5 91zM332 895q0 -96 54 -136t167 -40v362q-117 -8 -169 -50t-52 -136zM700 143q129 10 179.5 61.5t50.5 155.5 q0 102 -53.5 143.5t-174.5 41.5h-2v-402z" />
<glyph unicode="%" horiz-adv-x="1392" d="M102 1001q0 102 69 174t218 72q147 0 217 -71.5t70 -174.5q0 -100 -70 -172.5t-217 -72.5q-150 0 -218.5 72.5t-68.5 172.5zM141 2q12 2 45 30.5t80 92.5q20 29 75.5 102.5t130.5 175t155 212t153.5 213t125.5 177t69 103.5q39 66 37 94.5t-19 28.5h252q-14 0 -47 -28.5 t-80 -96.5q-23 -33 -77 -108.5t-127.5 -177t-152.5 -210t-151.5 -209t-126 -174t-73.5 -102.5q-41 -59 -39 -89t20 -34h-250zM266 1001q0 -23 7.5 -51t34 -49.5t81.5 -21.5q53 0 79 21.5t35 50t9 50.5q0 23 -9 51.5t-35 50t-79 21.5q-55 0 -81.5 -21.5t-34 -50t-7.5 -51.5z M717 225q0 102 68.5 174t218.5 72q147 0 216.5 -71.5t69.5 -174.5q0 -100 -69.5 -172.5t-216.5 -72.5q-150 0 -218.5 72.5t-68.5 172.5zM881 225q0 -23 8 -51.5t34 -50t81 -21.5q53 0 78.5 21.5t34.5 50.5t9 51q0 23 -9 51.5t-34.5 50t-78.5 21.5q-55 0 -81 -21.5t-34 -50 t-8 -51.5z" />
<glyph unicode="&#x26;" horiz-adv-x="1652" d="M82 307q0 98 46 168t110.5 114t124 66.5t86.5 30.5l2 4q-53 49 -88 122t-35 159q0 119 93 198.5t259 79.5q174 0 255 -78.5t81 -199.5q0 -80 -38 -141.5t-95.5 -103.5t-114.5 -67q41 -39 98.5 -81.5t119 -85.5t108.5 -84q12 16 31.5 64t19.5 124q0 59 -14.5 86t-28.5 29 h391q-14 0 -38.5 -29t-53.5 -94q-51 -117 -93 -180.5t-83 -108.5q43 -41 77.5 -73.5t96.5 -82.5q98 -78 156.5 -110.5t76.5 -32.5h-440q4 16 -18.5 58t-88.5 102q-31 -20 -103.5 -64.5t-189 -80t-282.5 -35.5q-106 0 -204.5 27.5t-161 99t-62.5 200.5zM303 297 q0 -86 59.5 -130t172.5 -44q158 0 268 45t170 100q-49 47 -120 100.5t-143.5 107.5t-129.5 102q-37 -14 -84 -36t-91.5 -54.5t-73 -79t-28.5 -111.5zM553 958q0 -82 35.5 -132t64.5 -70q49 16 100.5 72.5t51.5 142.5q0 59 -30 97t-95 38q-63 0 -95 -44t-32 -104z" />
<glyph unicode="'" horiz-adv-x="327" d="M82 1149q0 59 63 59h39q33 0 47.5 -17t14.5 -40q0 -29 -7.5 -83t-18.5 -111.5t-25.5 -97.5t-30.5 -40t-30.5 37t-26 91t-18.5 109.5t-7 92.5z" />
<glyph unicode="(" horiz-adv-x="600" d="M61 612q0 -178 35 -311t89.5 -226t115.5 -149.5t113.5 -83t83.5 -26.5q0 23 13 46t26 36h-21q-41 0 -94 38.5t-103.5 124.5t-83 222.5t-32.5 328.5q0 195 32.5 328t83 214t103.5 118t94 37h21q-12 10 -25.5 32.5t-13.5 49.5q-31 0 -83.5 -25t-113.5 -79t-115.5 -144 t-89.5 -221t-35 -310z" />
<glyph unicode=")" horiz-adv-x="600" d="M63 -102h21q41 0 94 38.5t103.5 124.5t83 222.5t32.5 328.5q0 195 -32.5 328t-83 214t-103.5 118t-94 37h-21q12 10 25.5 32.5t13.5 49.5q31 0 83.5 -25t113.5 -79t115.5 -144t89.5 -221t35 -310q0 -178 -35 -311t-89.5 -226t-115.5 -149.5t-113.5 -83t-83.5 -26.5 q0 23 -13 46t-26 36z" />
<glyph unicode="*" horiz-adv-x="722" d="M61 1137l64 194q-2 -6 12.5 -18.5t52.5 -24.5q29 -8 62 -30.5t51 -30.5q-2 20 -14.5 57t-12.5 70q0 41 -7 58.5t-13 17.5h205q-6 0 -13.5 -17.5t-7.5 -58.5q0 -33 -10 -71t-14 -58q18 10 51 32.5t65 30.5q41 14 54.5 25.5t11.5 17.5l64 -194q-2 6 -20.5 7t-59.5 -11 q-27 -8 -67 -10.5t-60 -6.5q14 -14 47 -36.5t49 -47.5q25 -33 41 -43t20 -6l-166 -121q4 4 0 22.5t-28 51.5q-18 25 -31.5 63.5t-24.5 57.5q-8 -18 -21 -57t-34 -66q-23 -33 -26.5 -51.5t0.5 -22.5l-166 121q6 -2 22.5 7t38.5 42q16 25 52 50.5t51 39.5q-20 4 -64.5 3 t-75.5 10q-39 12 -57.5 11t-20.5 -7z" />
<glyph unicode="+" horiz-adv-x="819" d="M61 553v123h287v287h123v-287h287v-123h-287v-287h-123v287h-287z" />
<glyph unicode="," horiz-adv-x="514" d="M102 113q0 47 32 79.5t93 32.5q98 0 141.5 -63.5t43.5 -141.5q0 -80 -38 -137t-94.5 -90t-113.5 -39l-41 72q88 20 121 73.5t22 104.5q-20 -4 -41 -4q-59 0 -92 34t-33 79z" />
<glyph unicode="-" horiz-adv-x="770" d="M61 410q14 23 27.5 63.5t13.5 79.5h402q104 0 152.5 7t52.5 13q-14 -20 -27.5 -60t-13.5 -83h-361q-113 0 -172.5 -7t-73.5 -13z" />
<glyph unicode="." horiz-adv-x="454" d="M102 92q0 47 32 80t93 33t93 -33t32 -80q0 -45 -33 -78.5t-92 -33.5t-92 33.5t-33 78.5z" />
<glyph unicode="/" horiz-adv-x="829" d="M61 -123l541 1532h166l-543 -1532h-164z" />
<glyph unicode="0" horiz-adv-x="1261" d="M82 621q0 307 137 467.5t406 160.5h22q264 0 398.5 -159.5t134.5 -468.5q0 -315 -134.5 -478t-398.5 -163h-22q-272 0 -407.5 162.5t-135.5 478.5zM311 621q0 -190 38 -294t109 -143t167 -39h22q96 0 164 40t103.5 143.5t35.5 292.5q0 184 -35.5 285.5t-103.5 140 t-164 38.5h-22q-98 0 -168 -38.5t-108 -139t-38 -286.5z" />
<glyph unicode="1" horiz-adv-x="702" d="M82 983v184q84 0 171 13.5t161.5 33t122.5 35.5v-1126q0 -66 14 -94.5t29 -28.5h-314q14 0 27.5 28.5t13.5 94.5v901z" />
<glyph unicode="2" horiz-adv-x="1159" d="M61 0v23q20 43 99.5 148t218.5 249q98 102 191.5 183t154.5 157t61 160q0 78 -47 121.5t-155 43.5q-98 0 -184.5 -30.5t-153 -74.5t-103.5 -85v41l-41 190q43 41 166 82t312 41q166 0 261 -43t135 -111.5t40 -144.5q0 -109 -51.5 -197.5t-136.5 -171.5t-187 -173 q-106 -92 -184 -152.5t-113 -83.5v-6h447q123 0 201.5 20.5t105.5 40.5l-41 -164v-63h-996z" />
<glyph unicode="3" horiz-adv-x="1179" d="M82 61l43 199v41q29 -33 88 -69.5t148.5 -62.5t203.5 -26q166 0 234.5 55.5t68.5 153.5q0 94 -75.5 142.5t-249.5 48.5h-174v153h174q133 0 188 60.5t55 167.5q0 162 -202 161q-96 0 -183.5 -30.5t-153 -74.5t-104.5 -85v41l-41 190q47 41 172 82t306 41q172 0 266 -39 t132 -108.5t38 -161.5q0 -106 -62.5 -182t-158.5 -115v-4q147 -33 225 -104.5t78 -196.5q0 -102 -49.5 -184t-159 -128t-287.5 -46q-209 0 -342 27.5t-178 53.5z" />
<glyph unicode="4" horiz-adv-x="1357" d="M20 236q14 31 74 112q31 43 88.5 121t127 176t138 200.5t121.5 192.5q66 106 80.5 149.5t3.5 41.5h418q-14 0 -27.5 -29t-13.5 -96l-2 -705h23q121 0 193.5 14.5t92.5 28.5l-41 -166v-40h-268v-113q0 -66 14.5 -94.5t28.5 -28.5h-313q14 0 27.5 28.5t13.5 94.5v113h-779z M334 399h465v705h-4q-31 -66 -88.5 -163t-126 -200.5t-134 -193.5t-112.5 -141v-7z" />
<glyph unicode="5" horiz-adv-x="1261" d="M82 61l41 199v41q31 -33 99.5 -69.5t171 -62.5t233.5 -26q176 0 249.5 60.5t73.5 179.5q0 227 -346 227q-174 0 -286.5 -13t-153.5 -28v660h905v-41l41 -164q-23 14 -123 27.5t-282 13.5h-312v-238q0 -45 10.5 -53t71.5 -8h189q268 0 392 -95.5t124 -303.5 q0 -170 -124 -278.5t-392 -108.5q-213 0 -367 27.5t-215 53.5z" />
<glyph unicode="6" horiz-adv-x="1261" d="M82 643q0 291 164 448.5t456 157.5q170 0 288 -28.5t163 -57.5l-41 -164v-41q-45 41 -152.5 82t-259.5 41q-113 0 -201.5 -45t-140 -147.5t-51.5 -272.5l4 -2q10 16 39 48t79 66t124 57.5t172 23.5q231 0 343 -101.5t112 -312.5q0 -102 -44 -197.5t-147.5 -156.5 t-283.5 -61h-43q-174 0 -305.5 70.5t-203 218t-71.5 374.5zM352 391q0 -113 72.5 -179.5t222.5 -66.5q164 0 233.5 69t69.5 192q0 127 -70.5 183t-213.5 56q-147 0 -230.5 -69.5t-83.5 -184.5z" />
<glyph unicode="7" horiz-adv-x="1177" d="M61 983v246h1096q-18 -20 -50 -64.5t-60 -91.5q-18 -29 -52 -99.5t-76 -163.5t-86.5 -195.5t-83 -199t-65.5 -172t-35 -114.5q-14 -72 -11 -100.5t11 -28.5h-364q12 2 44.5 46t80.5 151q49 109 90 214t92 226q78 176 149.5 275.5t114.5 148.5v4h-549q-133 0 -189.5 -27.5 t-56.5 -54.5z" />
<glyph unicode="8" horiz-adv-x="1220" d="M61 352q0 111 71 193t196 121v4q-86 41 -135.5 106.5t-49.5 143.5q0 84 45 158.5t141.5 121.5t250.5 47h63q154 0 249 -47t140 -121.5t45 -158.5q0 -78 -55 -145.5t-133 -102.5v-4q131 -41 200.5 -123t69.5 -193q0 -102 -57.5 -187t-172 -135t-286.5 -50h-63 q-176 0 -292 49t-171.5 133t-55.5 190zM291 362q0 -102 81.5 -159.5t231.5 -57.5h23q154 0 228.5 56.5t74.5 160.5t-84 162t-219 58h-23q-139 0 -226 -58.5t-87 -161.5zM373 909q0 -86 61 -125t170 -39h23q221 0 221 164q0 80 -53.5 127t-167.5 47h-23q-231 0 -231 -174z " />
<glyph unicode="9" horiz-adv-x="1261" d="M82 829q0 74 22.5 148t78 134t151.5 97t244 37h43q295 0 427 -154.5t132 -467.5q0 -231 -73 -372.5t-208 -206t-321 -64.5q-176 0 -301 27.5t-175 53.5l41 164v41q49 -39 156 -80t240 -41q227 0 322 100.5t95 327.5l-4 2q-37 -55 -135 -107t-260 -52q-170 0 -275.5 52 t-152.5 146.5t-47 214.5zM311 817q0 -66 28 -120t95.5 -85.5t190.5 -31.5q150 0 227.5 62.5t77.5 182.5q0 113 -68.5 183.5t-247.5 70.5q-164 0 -233.5 -76.5t-69.5 -185.5z" />
<glyph unicode=":" horiz-adv-x="454" d="M143 92q0 47 32 80t93 33t93 -33t32 -80q0 -45 -33 -78.5t-92 -33.5t-92 33.5t-33 78.5zM143 706q0 47 32 80t93 33t93 -33t32 -80q0 -45 -33 -78.5t-92 -33.5t-92 33.5t-33 78.5z" />
<glyph unicode=";" horiz-adv-x="514" d="M143 113q0 47 32 79.5t93 32.5q98 0 141.5 -63.5t43.5 -141.5q0 -80 -38 -137t-94.5 -90t-113.5 -39l-41 72q88 20 121 73.5t22 104.5q-20 -4 -41 -4q-59 0 -92 34t-33 79zM143 706q0 47 32 80t93 33t93 -33t32 -80q0 -45 -33 -78.5t-92 -33.5t-92 33.5t-33 78.5z" />
<glyph unicode="&#x3c;" horiz-adv-x="819" d="M61 532l697 -307v164l-562 225l562 226v164l-697 -308v-164z" />
<glyph unicode="=" horiz-adv-x="819" d="M61 430v123h779v-123h-779zM61 676v123h779v-123h-779z" />
<glyph unicode="&#x3e;" horiz-adv-x="819" d="M61 225v164l562 225l-562 226v164l697 -308v-164z" />
<glyph unicode="?" horiz-adv-x="1077" d="M164 1186q29 20 118 40.5t236 20.5q139 0 226 -41t128 -104.5t41 -132.5q0 -86 -54 -159t-147.5 -124t-213.5 -72q0 -12 -5.5 -47t-14.5 -75.5t-19.5 -70.5t-22.5 -30q-20 0 -41.5 74t-21.5 231q137 33 224 112t87 171q0 59 -39 92t-137 33q-94 0 -177 -44t-126 -85v61z M315 92q0 47 32 80t93 33t93 -33t32 -80q0 -45 -33 -78.5t-92 -33.5t-92 33.5t-33 78.5z" />
<glyph unicode="@" horiz-adv-x="1589" d="M102 532q0 197 90.5 339.5t247 219t355.5 76.5q205 0 360.5 -68.5t243.5 -200.5t88 -325q0 -115 -43 -194.5t-112.5 -119.5t-147.5 -40q-106 0 -159.5 49t-76.5 119q-23 -45 -77 -84t-144 -39q-125 0 -177 68.5t-52 165.5v10q0 61 23.5 114.5t77.5 86t146 32.5 q72 0 115 -25.5t60 -41.5l20 76h127q-8 -8 -15.5 -46t-7.5 -112v-103q0 -102 38 -146t102 -44q84 0 127 75t43 199q0 240 -148.5 361t-410.5 121q-168 0 -294 -61.5t-195.5 -178.5t-69.5 -283q0 -268 145 -395t414 -127q57 0 95 4t83 19q59 16 101 39.5t61 40.5l-21 -72v-47 q-49 -43 -130 -69.5t-189 -26.5q-209 0 -365 71.5t-242 213t-86 349.5zM623 498q0 -82 38 -110t89 -28q80 0 125 43t45 111v-2q2 72 -38 103.5t-112 31.5q-74 0 -110.5 -32.5t-36.5 -106.5v-10z" />
<glyph unicode="A" horiz-adv-x="1519" d="M16 0q8 0 29 28.5t53 96.5q14 31 49 104.5t82 174t98.5 210t97.5 210t81 176t49 106.5q29 66 31 94.5t-8 28.5h358q-8 0 -6 -29t28 -94q14 -31 47 -105.5t79 -175t95.5 -208t96.5 -208t82 -176t51 -108.5q33 -68 60.5 -96.5t41.5 -28.5h-378q19 4 33 32q6 12 6 30 q0 25 -11 63q-4 16 -14 47t-19 45q-18 41 -37.5 51.5t-72.5 10.5h-524q-59 0 -81 -8.5t-36 -51.5q-8 -25 -16.5 -49.5t-12.5 -44.5q-12 -47 -12 -75q0 -14 2 -22q8 -28 22 -28h-344zM483 456.5q5 -14.5 64 -14.5h411q59 0 65.5 10.5t-5.5 45.5q-37 88 -85 192.5t-94 204.5 t-81 170h-4q-43 -90 -88 -187.5t-85 -182.5t-65 -138l-24 -53q-14 -33 -9 -47.5z" />
<glyph unicode="B" horiz-adv-x="1464" d="M123 0q14 0 28.5 28.5t14.5 94.5v983q0 66 -14.5 93.5t-28.5 29.5h727q248 0 350.5 -82t102.5 -221q0 -102 -54.5 -164t-113.5 -82v-4q268 -61 268 -320q0 -100 -47 -181t-150.5 -128t-273.5 -47h-809zM395 227q0 -45 11.5 -53t70.5 -8h418q150 0 214.5 54t64.5 145 q0 104 -73 152t-267 48h-355q-61 0 -72.5 -8t-11.5 -55v-275zM395 770q0 -45 11.5 -53t72.5 -8h373q115 0 169 44t54 144q0 84 -54 126t-187 42h-355q-61 0 -72.5 -7t-11.5 -54v-234z" />
<glyph unicode="C" horiz-adv-x="1415" d="M92 614q0 190 72 333t227.5 222.5t403.5 79.5q195 0 323.5 -20.5t173.5 -40.5v-41l41 -184q-57 41 -198.5 81.5t-335.5 40.5q-182 0 -286.5 -60t-147.5 -166.5t-43 -244.5q0 -137 44 -242.5t159.5 -166t332.5 -60.5q176 0 294 42t161 81v-61l20 -125 q-35 -33 -168.5 -67.5t-369.5 -34.5q-352 0 -527.5 152.5t-175.5 481.5z" />
<glyph unicode="D" horiz-adv-x="1538" d="M123 0q14 0 28.5 28.5t14.5 94.5v983q0 66 -14.5 93.5t-28.5 29.5h643q182 0 304 -35t196.5 -96.5t113.5 -140t52.5 -167t13.5 -178.5q0 -82 -13.5 -169t-53.5 -165.5t-114.5 -141t-196.5 -99.5t-302 -37h-643zM395 227q0 -45 11.5 -53t70.5 -8h252q262 0 375 102.5 t113 329.5v37q0 160 -45.5 253t-152 133t-290.5 40h-252q-59 0 -70.5 -7t-11.5 -50v-777z" />
<glyph unicode="E" horiz-adv-x="1400" d="M123 0q14 0 28.5 28.5t14.5 94.5v983q0 66 -14.5 93.5t-28.5 29.5h1153v-41l41 -197q-51 23 -180 48.5t-312 25.5h-346q-61 0 -72.5 -9t-11.5 -52v-234q0 -45 11.5 -53t70.5 -8h338q119 0 191.5 13t95.5 28q-14 -39 -27.5 -99.5t-13.5 -105.5h-584q-59 0 -70.5 -7.5 t-11.5 -54.5v-254q0 -47 10.5 -55t71.5 -8h596q119 0 191.5 27.5t95.5 54.5l-41 -185v-63h-1196z" />
<glyph unicode="F" horiz-adv-x="1357" d="M123 0q14 0 28.5 28.5t14.5 94.5v983q0 66 -14.5 93.5t-28.5 29.5h1153v-41l41 -197q-51 23 -180 48.5t-312 25.5h-346q-61 0 -72.5 -9t-11.5 -52v-234q0 -45 11.5 -53t70.5 -8h338q119 0 191.5 13t95.5 28q-14 -39 -27.5 -99.5t-13.5 -105.5h-584q-59 0 -70.5 -7.5 t-11.5 -54.5v-360q0 -68 14.5 -95.5t28.5 -27.5h-315z" />
<glyph unicode="G" horiz-adv-x="1519" d="M92 610q0 188 72 332.5t227.5 225.5t403.5 81q195 0 322.5 -20.5t174.5 -40.5v-41l41 -184q-55 41 -194.5 81.5t-339.5 40.5q-164 0 -270.5 -60t-156.5 -166.5t-50 -248.5q0 -223 105 -344t349 -121q139 0 221 31t117 83t35 114v53q0 47 -7 54t-55 7h-65 q-115 0 -183.5 -14t-86.5 -29l20 162v41h645q-14 -2 -27.5 -29.5t-13.5 -93.5v-401q0 -66 13.5 -94.5t27.5 -28.5h-268v47l4 57l-4 5q-33 -35 -86 -65t-142.5 -47t-228.5 -17q-279 0 -439.5 154.5t-160.5 475.5z" />
<glyph unicode="H" d="M123 0q14 0 28.5 28.5t14.5 94.5v983q0 66 -14.5 93.5t-28.5 29.5h315q-14 0 -28.5 -29t-14.5 -96v-334q0 -45 11.5 -53t72.5 -8h613q61 0 71.5 7t10.5 54v336q0 66 -14.5 93.5t-29.5 29.5h316q-14 0 -28.5 -29t-14.5 -96v-981q0 -66 14.5 -94.5t28.5 -28.5h-316 q14 0 29 28.5t15 94.5v360q0 47 -11.5 54.5t-70.5 7.5h-613q-61 0 -72.5 -8.5t-11.5 -53.5v-360q0 -66 14.5 -94.5t28.5 -28.5h-315z" />
<glyph unicode="I" horiz-adv-x="561" d="M123 0q14 0 28.5 28.5t14.5 94.5v983q0 66 -14.5 93.5t-28.5 29.5h315q-14 0 -28.5 -29t-14.5 -96v-981q0 -66 14.5 -94.5t28.5 -28.5h-315z" />
<glyph unicode="J" horiz-adv-x="1103" d="M41 76l41 211v41q29 -39 83 -82t130 -73t166 -30q152 0 210 63.5t58 223.5v676q0 66 -14.5 93.5t-28.5 29.5h315q-14 0 -28.5 -29t-14.5 -96v-674q0 -180 -56 -277.5t-159.5 -135t-244.5 -37.5q-174 0 -293 32.5t-164 63.5z" />
<glyph unicode="K" horiz-adv-x="1546" d="M123 0q14 0 28.5 28.5t14.5 94.5v983q0 66 -14.5 93.5t-28.5 29.5h315q-14 0 -28.5 -29t-14.5 -96v-334q0 -45 12.5 -53t71.5 -8h21q94 0 192.5 50t176 140t108.5 205q11 41 11 67q0 15 -4 27q-11 28 -28 31h437q-20 0 -61.5 -29t-84.5 -96q-53 -84 -96 -143.5 t-83 -102.5t-87 -84q-63 -53 -112.5 -77.5t-73.5 -34.5v-7q49 -10 116.5 -37.5t155.5 -89.5q106 -76 185 -173t149 -212q47 -76 86 -109.5t59 -33.5h-430q23 0 37 26q5 10 5 26q0 24 -13 61q-37 102 -123 201.5t-216 165t-304 65.5h-23q-63 0 -73.5 -9.5t-10.5 -58.5v-354 q0 -66 14.5 -94.5t28.5 -28.5h-315z" />
<glyph unicode="L" horiz-adv-x="1304" d="M123 0q14 0 28.5 28.5t14.5 94.5v983q0 66 -14.5 93.5t-28.5 29.5h315q-14 0 -28.5 -29t-14.5 -96v-875q0 -45 11.5 -54t72.5 -9h518q119 0 192 27.5t95 54.5l-41 -205v-43h-1120z" />
<glyph unicode="M" horiz-adv-x="1939" d="M123 0q14 0 28.5 28.5t14.5 94.5v983q0 66 -14.5 93.5t-28.5 29.5h379q-4 0 4 -29t39 -98q12 -27 44 -94.5t77 -160.5t96 -199.5t104.5 -216t100.5 -206.5h2q49 98 102 208t106.5 218.5t98.5 201.5t76.5 159.5t44.5 93.5q29 66 38 94.5t5 28.5h377q-14 0 -28.5 -29 t-14.5 -96v-981q0 -66 14 -94.5t29 -28.5h-314q14 0 27.5 28.5t13.5 94.5v848h-4q-53 -106 -114.5 -232.5t-121 -248t-105.5 -219t-69 -148.5q-29 -63 -29.5 -92t9.5 -31h-287q11 0 11 28t-31 95q-18 43 -63.5 137t-103.5 217t-119.5 253t-115.5 241h-6v-848 q0 -66 14.5 -94.5t28.5 -28.5h-315z" />
<glyph unicode="N" d="M123 0q14 0 28.5 28.5t14.5 94.5v983q0 66 -14.5 93.5t-28.5 29.5h317q-2 -6 15.5 -37t64.5 -90q14 -18 60.5 -73.5t116 -136.5t150.5 -176t164 -192.5t158 -185.5h5v768q0 66 -14.5 93.5t-29.5 29.5h316q-14 0 -28.5 -29t-14.5 -96v-981q0 -66 14.5 -94.5t28.5 -28.5 h-268q2 6 -16.5 38t-65.5 89q-31 39 -89.5 109.5t-132 161.5t-156.5 191.5t-164 201t-153 186.5h-6v-854q0 -66 14.5 -94.5t28.5 -28.5h-315z" />
<glyph unicode="O" d="M92 621q0 195 68.5 335t215 216.5t382.5 76.5h63q231 0 375.5 -75.5t212.5 -217t68 -335.5q0 -303 -156 -472t-500 -169h-63q-352 0 -509 168.5t-157 472.5zM322 621q0 -176 50 -280.5t152 -150t254 -45.5h23q154 0 252 45.5t146 148.5t48 282q0 260 -110.5 362 t-335.5 102h-23q-231 0 -343.5 -104t-112.5 -360z" />
<glyph unicode="P" horiz-adv-x="1357" d="M123 1229h672q186 0 293.5 -50.5t152.5 -141.5t45 -212q0 -127 -46 -220t-153.5 -143t-291.5 -50h-400v-289q0 -66 14.5 -94.5t28.5 -28.5h-313q14 0 27.5 28.5t13.5 94.5v983q0 66 -14.5 93.5t-28.5 29.5zM395 631q0 -41 10.5 -49.5t73.5 -8.5h273q133 0 198.5 33 t87 90.5t21.5 128.5q0 76 -26.5 129.5t-93.5 81t-187 27.5h-273q-63 0 -73.5 -7t-10.5 -48v-377z" />
<glyph unicode="Q" horiz-adv-x="1593" d="M92 621q0 195 68.5 335t215 216.5t382.5 76.5h63q231 0 375.5 -75.5t212.5 -217t68 -335.5q0 -541 -467 -625q66 -47 115 -99.5t98 -89t114 -36.5q55 0 78 33.5t23 70.5q0 41 -13.5 68.5t-27.5 36.5h145q0 -55 -13 -117t-46 -115t-88.5 -87t-141.5 -34q-98 0 -161.5 36 t-108.5 88t-83 104.5t-82 88.5t-107 36q-61 0 -91 -24t-30 -56q0 -20 7 -44t13 -40q-20 14 -60 27.5t-85 13.5q0 88 57 147q-213 49 -321.5 202.5t-108.5 414.5zM322 621q0 -176 50 -280.5t152 -150t254 -45.5h23q154 0 252 45.5t146 148.5t48 282q0 260 -110.5 362 t-335.5 102h-23q-231 0 -343.5 -104t-112.5 -360z" />
<glyph unicode="R" horiz-adv-x="1515" d="M123 1229h672q190 0 296.5 -46t150.5 -131t44 -206q0 -76 -32.5 -149.5t-105.5 -127t-196 -69.5v-6q137 -37 236.5 -135.5t171.5 -215.5q47 -76 86 -108.5t59 -34.5h-430q25 2 40 28q5 9 5 23q0 24 -16 62q-63 147 -209.5 243.5t-392.5 96.5h-23q-63 0 -73.5 -10.5 t-10.5 -51.5v-268q0 -66 14.5 -94.5t28.5 -28.5h-313q14 0 27.5 28.5t13.5 94.5v983q0 66 -14.5 93.5t-28.5 29.5zM395 672q0 -41 10.5 -48.5t73.5 -7.5h252q328 0 328 230q0 115 -73 166t-234 51h-273q-63 0 -73.5 -6t-10.5 -47v-338z" />
<glyph unicode="S" horiz-adv-x="1445" d="M82 301q29 -33 109.5 -69.5t216 -62.5t321.5 -26q168 0 255 23.5t119 65.5t32 98q0 98 -120 139t-353 70q-203 27 -326 70.5t-178.5 117.5t-55.5 186q0 143 131.5 239.5t407.5 96.5q213 0 370.5 -20.5t223.5 -40.5v-41l61 -184q-43 27 -132 55.5t-214 47.5t-278 19 q-193 0 -266.5 -40.5t-73.5 -118.5q0 -102 112.5 -144.5t321.5 -66.5q221 -25 352 -70t188.5 -120.5t57.5 -196.5q0 -162 -151.5 -255t-446.5 -93q-223 0 -395 20t-248 41v41z" />
<glyph unicode="T" horiz-adv-x="1306" d="M20 991l41 197v41h1184v-41l41 -197q-23 23 -95.5 48.5t-191.5 25.5h-147q-63 0 -73.5 -8t-10.5 -53v-881q0 -66 14.5 -94.5t28.5 -28.5h-315q14 0 28.5 28.5t14.5 94.5v881q0 45 -10.5 53t-71.5 8h-150q-119 0 -191.5 -25.5t-95.5 -48.5z" />
<glyph unicode="U" horiz-adv-x="1505" d="M102 1229h312q-14 -2 -27.5 -28.5t-13.5 -92.5v-573q0 -215 99 -302.5t273 -87.5h23q176 0 270.5 86t94.5 304v573q0 66 -13.5 93.5t-27.5 27.5h311q-14 -2 -27.5 -30t-13.5 -93v-576q0 -258 -146.5 -404t-451.5 -146h-21q-311 0 -455.5 146t-144.5 404v578 q0 66 -13 93.5t-28 27.5z" />
<glyph unicode="V" horiz-adv-x="1509" d="M20 1229h379q-18 0 -24 -29q-1 -5 -1 -11q0 -30 25 -87q16 -35 55.5 -129t90.5 -222t107.5 -266.5t105.5 -259.5h2q39 98 84 208t90 218.5t84 201.5t66.5 159.5t37.5 93.5q24 55 24 84q0 6 -1 10q-6 28 -23 29h367q-12 0 -38 -27.5t-58 -93.5q-14 -29 -52 -103.5 t-88.5 -176t-104.5 -211t-102.5 -210t-82 -176t-41.5 -106.5q-15 -57 -15 -86q1 -7 1 -11q4 -28 14 -28h-328q14 0 19 28q1 5 1 12q0 29 -20 85q-8 23 -41 93.5t-80 170.5t-100.5 211t-103.5 213t-89 180t-55 109q-35 66 -62.5 95.5t-42.5 31.5z" />
<glyph unicode="W" horiz-adv-x="2408" d="M20 1229h371q-14 -2 -17 -31v-8q0 -30 19 -88q12 -33 46 -128t81 -224t98.5 -267.5t96.5 -261.5h4q41 119 86 255t87 265t73.5 225.5t42.5 135.5q15 56 15 85q0 5 -1 11q-4 28 -14 31h391q-13 0 -17 -29q-1 -5 0 -12q0 -30 17 -88q10 -35 40.5 -129t72.5 -223.5 t88.5 -267.5t87.5 -259h4q47 123 98 261.5t99 267.5t83 223t45 129q19 58 19 87q0 5 -1 11q-5 28 -18 29h371q-14 -2 -41 -32t-61 -95q-16 -31 -51 -105.5t-80.5 -175t-92.5 -208t-90 -207t-72.5 -174t-39.5 -105.5q-17 -58 -17 -87q1 -6 1 -10q4 -28 16 -30h-349 q13 2 17 30q1 5 0 12q0 29 -17 85q-10 35 -42.5 130t-77.5 226t-95.5 273.5t-93.5 267.5h-4q-35 -100 -74 -212t-76.5 -222.5t-70.5 -205.5t-54.5 -162.5t-29.5 -94.5q-15 -54 -14 -84v-11q4 -30 14 -32h-348q14 4 18 32q1 4 1 9q0 28 -19 80q-8 23 -38 92.5t-72 168.5 t-89 209.5t-92 215t-79 184.5t-50 115q-27 66 -57.5 93.5t-47.5 29.5z" />
<glyph unicode="X" horiz-adv-x="1478" d="M20 0q10 2 45 29.5t93 91.5q111 125 220 248t220 247q-51 59 -114.5 130t-125 140.5t-111.5 126t-79 89.5q-59 68 -97 96.5t-51 30.5h398q-12 0 -14.5 -6t16.5 6h-2q-16 0 -12 -29t57 -98q29 -37 70.5 -95.5t87 -119t79 -106.5t41.5 -58h4q8 12 42 56t79 103.5t89 120 t75 103.5q47 68 52 95.5t-9 27.5h383q-8 0 -43 -27.5t-94 -93.5q-109 -123 -217.5 -246t-216.5 -246q51 -61 112.5 -132.5t123 -141.5t111.5 -127t79 -88q59 -63 97 -93t50 -34h-377q16 2 11 30.5t-54 96.5q-27 37 -71.5 93t-93 115.5t-84 104.5t-46.5 58h-4 q-8 -12 -41.5 -55.5t-80 -101.5t-91.5 -116.5t-77 -101.5q-49 -63 -53.5 -92t10.5 -31h-386z" />
<glyph unicode="Y" horiz-adv-x="1458" d="M10 1229h400q-14 -2 -10.5 -31t51.5 -96q29 -39 78 -107.5t104 -141.5t98 -132h2q43 53 97.5 123.5t106.5 141.5t85 120q47 70 51 96.5t-10 26.5h385q-10 0 -45 -27.5t-92 -93.5q-117 -135 -232.5 -270.5t-232.5 -270.5v-444q0 -68 13 -95.5t28 -27.5h-322 q16 0 33.5 27.5t17.5 95.5v444q-57 68 -124.5 147t-133 155.5t-119 138t-81.5 94.5q-59 66 -97 95.5t-51 31.5z" />
<glyph unicode="Z" horiz-adv-x="1384" d="M20 0q4 10 23.5 41t58.5 78q45 55 115 139t156 185.5t178 210t182 214t166 193.5v4h-551q-133 0 -195.5 -27.5t-70.5 -54.5v246h1221q-8 -12 -32 -43t-59 -72q-78 -92 -181 -213t-216 -252t-219.5 -255t-189.5 -222v-6h692q115 0 181.5 27.5t84.5 54.5l-41 -185v-63 h-1303z" />
<glyph unicode="[" horiz-adv-x="430" d="M61 -164h287q0 35 7 62.5t14 40.5l-166 -21v1411l166 -20q-6 12 -13.5 39.5t-7.5 62.5h-287q6 0 13.5 -28.5t7.5 -96.5v-1327q0 -66 -7 -94.5t-14 -28.5z" />
<glyph unicode="\" horiz-adv-x="829" d="M61 1409l543 -1532h164l-541 1532h-166z" />
<glyph unicode="]" horiz-adv-x="430" d="M61 -61l166 -21v1411l-166 -20q6 12 13.5 39.5t7.5 62.5h287q-6 0 -13.5 -28.5t-7.5 -96.5v-1327q0 -66 7 -94.5t14 -28.5h-287q0 35 -7 62.5t-14 40.5z" />
<glyph unicode="^" horiz-adv-x="782" d="M61 698q41 68 85 141.5t84 140.5t67 113t31 54q20 43 8 43h123q-12 -4 6 -43q6 -12 32.5 -58.5t64.5 -112t80 -139t79 -139.5h-143l-181 365l-192 -365h-144z" />
<glyph unicode="_" horiz-adv-x="1064" d="M41 -123h983v-123h-983v123z" />
<glyph unicode="`" horiz-adv-x="442" d="M-18.5 1514.5q12.5 21.5 46.5 21.5h21q51 0 73.5 -15.5t43.5 -45.5q25 -37 58.5 -92.5t63 -108.5t42.5 -90t-1 -37q-20 0 -59 30.5t-87 78t-96 100.5t-85 98q-33 39 -20.5 60.5z" />
<glyph unicode="a" horiz-adv-x="1239" d="M82 279q0 143 108.5 225t331.5 82q160 0 256 -32t129 -54q-2 182 -68.5 259t-234.5 77q-121 0 -216 -28t-152.5 -59.5t-71.5 -46.5v41l-21 154q18 8 80 27.5t162 37t236 17.5q258 0 376.5 -109.5t118.5 -337.5v-409q0 -57 13.5 -83t27.5 -40h-250v61l4 39l-4 2 q-68 -61 -176.5 -91.5t-245.5 -30.5q-223 0 -313 80.5t-90 218.5zM289 279q0 -80 62.5 -117t201.5 -37q166 0 260 48t94 122q0 61 -81 104t-251 43q-158 0 -222 -41t-64 -122z" />
<glyph unicode="b" horiz-adv-x="1243" d="M94 0q14 0 27.5 28.5t13.5 94.5v1167q0 66 -13 93.5t-28 29.5h250v-495l-4 -39l4 -5q41 39 124 72t196 33q190 0 300.5 -66.5t158.5 -179t48 -256.5q0 -141 -47 -253.5t-157 -178t-303 -65.5q-113 0 -190 26.5t-130 73.5l-4 -2l4 -39v-39h-250zM344 477q0 -162 63.5 -257 t235.5 -95q127 0 196.5 41t96.5 120t27 191q0 113 -28 193t-96.5 123t-195.5 43q-123 0 -187.5 -48.5t-88 -130.5t-23.5 -180z" />
<glyph unicode="c" horiz-adv-x="1146" d="M72 477q0 250 136 375t398 125q160 0 268.5 -20.5t149.5 -38.5v-41l41 -179q-41 43 -155.5 89.5t-288.5 46.5q-88 0 -167 -30t-127 -108t-48 -221q0 -139 51 -216t141 -105.5t205 -28.5q145 0 240.5 45t127.5 88v-41l21 -139q-39 -33 -152.5 -65.5t-285.5 -32.5 q-213 0 -335 65.5t-171 178t-49 253.5z" />
<glyph unicode="d" horiz-adv-x="1251" d="M72 477q0 143 42 256t149.5 179.5t301.5 66.5q123 0 205 -33t129 -84l4 2l-4 39v387q0 66 -13.5 93.5t-27.5 29.5h250v-1290q0 -66 13.5 -94.5t27.5 -28.5h-250v63l6 39l-6 2q-47 -53 -129 -88.5t-205 -35.5q-195 0 -302 65.5t-149 178t-42 253.5zM279 475 q0 -109 25.5 -187.5t91 -120.5t184.5 -42q104 0 167.5 31.5t96.5 84t44 114t11 122.5q0 53 -12.5 115.5t-45 118t-96 90.5t-165.5 35q-172 0 -236.5 -98.5t-64.5 -262.5z" />
<glyph unicode="e" horiz-adv-x="1146" d="M72 477q0 231 132 366.5t392 135.5q152 0 245 -41t141 -108.5t65.5 -146.5t17.5 -155v-96q0 6 -56.5 13.5t-189.5 7.5h-538q0 -152 90 -240t268 -88q154 0 253 38t132 75v-41l20 -136q-45 -27 -158.5 -54t-277.5 -27q-162 0 -266 37.5t-163.5 105t-83 158t-23.5 196.5z M305 629q0 -20 12 -30.5t45 -10.5h498q0 53 -22.5 110.5t-80 97.5t-161.5 40q-133 0 -212 -63.5t-79 -143.5z" />
<glyph unicode="f" horiz-adv-x="825" d="M0 815v143h205l2 5q-6 10 -24.5 68.5t-18.5 137.5q0 162 92 234t256 72q111 0 202 -13.5t132 -27.5v-43l41 -160v-2v2q-6 12 -56.5 35.5t-128 43t-163.5 19.5t-126 -38t-40 -144v-127q0 -45 8 -53.5t55 -8.5h348q-12 -20 -26.5 -60t-14.5 -83h-350v-692q0 -66 14.5 -94.5 t26.5 -28.5h-291q14 0 27.5 28.5t13.5 94.5v692h-184z" />
<glyph unicode="g" horiz-adv-x="1251" d="M72 477q0 143 42 256t149.5 179.5t301.5 66.5q123 0 205 -33t129 -84l4 2l-4 39v55h250q-14 -2 -27.5 -30.5t-13.5 -96.5v-784q0 -297 -126 -422t-388 -125q-178 0 -311 35t-191 68l41 184v59q29 -43 90.5 -90t153.5 -79.5t209 -32.5q137 0 203.5 45t88 125t21.5 182v76 l4 37l-4 4q-41 -51 -126 -92t-208 -41q-195 0 -302 65.5t-149 178t-42 253.5zM279 475q0 -164 63.5 -257t237.5 -93q127 0 196.5 40t96 118.5t26.5 193.5q0 113 -27.5 193t-96 123t-195.5 43q-172 0 -236.5 -98.5t-64.5 -262.5z" />
<glyph unicode="h" horiz-adv-x="1226" d="M94 0q14 0 27.5 28.5t13.5 94.5v1167q0 66 -13 93.5t-28 29.5h250v-559l-4 -27l4 -4q45 57 133 106.5t234 49.5q190 0 291.5 -108.5t101.5 -340.5v-407q0 -66 13 -94.5t28 -28.5h-291q14 0 27.5 28.5t13.5 94.5v401q0 121 -30.5 188.5t-85 95.5t-126.5 28 q-76 0 -147.5 -33t-116.5 -104.5t-45 -192.5v-383q0 -66 13.5 -94.5t27.5 -28.5h-291z" />
<glyph unicode="i" horiz-adv-x="466" d="M94 0q14 0 27.5 28.5t13.5 94.5v713q0 66 -13 93t-28 29h250v-835q0 -66 13.5 -94.5t27.5 -28.5h-291zM94 1268q0 47 32 79.5t93 32.5t93 -32.5t32 -79.5q0 -45 -33 -79t-92 -34t-92 34t-33 79z" />
<glyph unicode="j" horiz-adv-x="466" d="M-213 -459l41 144v61q23 -33 74 -68.5t114 -35.5q74 0 96.5 59t22.5 186v949q0 66 -13 93t-28 29h250v-976q0 -184 -47 -290t-123 -149t-162 -43q-88 0 -146.5 13.5t-78.5 27.5zM94 1268q0 47 32 79.5t93 32.5t93 -32.5t32 -79.5q0 -45 -33 -79t-92 -34t-92 34t-33 79z " />
<glyph unicode="k" horiz-adv-x="1148" d="M94 0q14 0 27.5 28.5t13.5 94.5v1167q0 66 -13 93.5t-28 29.5h250v-797q0 -45 11.5 -54t72.5 -9q94 0 172 66.5t113 214.5q13 57 13 86v10q-3 28 -13 28h334q-12 0 -40 -28.5t-65 -95.5q-47 -86 -88 -149.5t-94 -109t-135 -79.5q145 -49 234 -142.5t171 -230.5 q41 -66 73 -94.5t46 -28.5h-332q12 2 9 35t-42 108q-53 109 -140 187t-216 78q-63 0 -73.5 -7.5t-10.5 -54.5v-223q0 -66 13.5 -94.5t27.5 -28.5h-291z" />
<glyph unicode="l" horiz-adv-x="495" d="M102 0q14 0 27.5 28.5t13.5 94.5v1167q0 66 -13 93.5t-28 29.5q90 0 157 13.5t93 27.5v-1331q0 -66 13.5 -94.5t27.5 -28.5h-291z" />
<glyph unicode="m" horiz-adv-x="1902" d="M94 0q14 0 27.5 28.5t13.5 94.5v692q0 66 -13 93.5t-28 29.5q90 0 156.5 13.5t93.5 27.5v-125l-4 -27l4 -4q31 39 69 74t99 58.5t158 23.5q125 0 212 -46t134 -142q25 41 71 84t119.5 73.5t179.5 30.5q190 0 292 -108.5t102 -340.5v-407q0 -66 13 -94.5t28 -28.5h-291 q14 0 27.5 28.5t13.5 94.5v401q0 121 -31 188.5t-85 95.5t-126 28q-119 0 -192.5 -75t-73.5 -253v-385q0 -66 13.5 -94.5t27.5 -28.5h-291q14 0 27.5 28.5t13.5 94.5v401q0 121 -30.5 188.5t-85 95.5t-126.5 28q-115 0 -191.5 -75t-76.5 -255v-383q0 -66 13.5 -94.5 t27.5 -28.5h-291z" />
<glyph unicode="n" horiz-adv-x="1226" d="M94 0q14 0 27.5 28.5t13.5 94.5v692q0 66 -13 93.5t-28 29.5q90 0 156.5 13.5t93.5 27.5v-125l-4 -27l4 -4q45 57 133 106.5t234 49.5q190 0 291.5 -108.5t101.5 -340.5v-407q0 -66 13 -94.5t28 -28.5h-291q14 0 27.5 28.5t13.5 94.5v401q0 121 -30.5 188.5t-85 95.5 t-126.5 28q-76 0 -147.5 -33t-116.5 -104.5t-45 -192.5v-383q0 -66 13.5 -94.5t27.5 -28.5h-291z" />
<glyph unicode="o" horiz-adv-x="1200" d="M72 477q0 143 48 256t162.5 179.5t317.5 66.5t317.5 -66.5t162.5 -179t48 -256.5q0 -141 -46 -253.5t-160.5 -178t-321.5 -65.5q-205 0 -320.5 65.5t-161.5 178t-46 253.5zM281 475q0 -109 26.5 -187.5t96 -120.5t196.5 -42t196.5 41t96.5 120t27 191q0 113 -28 193 t-96.5 123t-195.5 43q-125 0 -194.5 -44t-97 -125t-27.5 -192z" />
<glyph unicode="p" horiz-adv-x="1243" d="M94 -455q14 0 27.5 29t13.5 94v1168q0 66 -13 93t-28 29h250v-40l-4 -39l4 -5q41 39 124 72t196 33q190 0 300.5 -66.5t158.5 -179t48 -256.5q0 -141 -47 -253.5t-157.5 -178t-302.5 -65.5q-113 0 -190 26.5t-130 73.5l-4 -2l4 -39v-371q0 -66 13.5 -94.5t27.5 -28.5 h-291zM344 475q0 -100 25.5 -180t90 -125t183.5 -45q127 0 196.5 41t96.5 120t27 191q0 113 -28 193t-96.5 123t-195.5 43q-123 0 -187.5 -49.5t-88 -131.5t-23.5 -180z" />
<glyph unicode="q" horiz-adv-x="1253" d="M72 477q0 143 42 256t149.5 179.5t301.5 66.5q123 0 205 -33t129 -84l4 2l-4 39v55h252q-14 -2 -28.5 -30.5t-14.5 -96.5v-1167q0 -66 13.5 -94.5t25.5 -28.5q-88 0 -160.5 -13.5t-107.5 -27.5q6 16 13 58.5t7 105.5v399l4 39l-4 2q-47 -53 -129 -88.5t-205 -35.5 q-195 0 -302 65.5t-149 178t-42 253.5zM279 475q0 -109 25.5 -187.5t91 -120.5t184.5 -42q104 0 167.5 31.5t96.5 84t44 114t11 122.5q0 53 -12.5 115.5t-45 118t-96 90.5t-165.5 35q-172 0 -236.5 -98.5t-64.5 -262.5z" />
<glyph unicode="r" horiz-adv-x="960" d="M94 0q14 0 27.5 28.5t13.5 94.5v692q0 66 -13 93.5t-28 29.5q90 0 156.5 13.5t93.5 27.5v-102l-4 -35l4 -4q47 59 122 100t185 41q96 0 167 -27.5t102 -56.5l-41 -172v-61q-27 33 -77 68.5t-113.5 60t-135.5 24.5q-82 0 -145.5 -65.5t-63.5 -217.5v-409q0 -66 13.5 -94.5 t27.5 -28.5h-291z" />
<glyph unicode="s" horiz-adv-x="1167" d="M82 258q53 -43 187 -89t327 -46q127 0 190.5 17.5t84 47t20.5 66.5q0 43 -30 68.5t-110.5 43t-238.5 35.5q-172 20 -265 59.5t-128 100t-35 144.5q0 66 35 129t130 104t271 41q190 0 320.5 -20.5t177.5 -40.5v-41l41 -156q-51 37 -186.5 76t-325.5 39q-152 0 -203 -34 t-51 -87q0 -31 12 -54.5t50 -42t115 -33t206 -28.5q174 -18 264 -57t124 -97.5t34 -136.5q0 -84 -46 -148.5t-150.5 -101t-276.5 -36.5q-193 0 -323 20t-177 41v41z" />
<glyph unicode="t" horiz-adv-x="845" d="M41 815v143q94 0 147.5 24t76 83t22.5 166h147v-273h391q-14 -20 -27.5 -60t-13.5 -83h-350v-547q0 -94 35 -118.5t88 -24.5q76 0 137.5 45t87.5 88v-63l21 -117q-31 -33 -110.5 -65.5t-198.5 -32.5q-141 0 -205 60t-64 198v577h-184z" />
<glyph unicode="u" horiz-adv-x="1228" d="M94 958h293q-14 0 -29.5 -28.5t-15.5 -93.5v-410q0 -174 61.5 -237.5t161.5 -63.5t174 49t116 135t42 195v332q0 66 -13.5 93t-27.5 29h250v-835q0 -66 13.5 -94.5t27.5 -28.5h-250v123l4 41l-4 4q-16 -33 -62.5 -77t-122 -77.5t-184.5 -33.5q-119 0 -208 41.5t-137 145 t-48 288.5v381q0 66 -13 94t-28 28z" />
<glyph unicode="v" horiz-adv-x="1167" d="M0 958h334q-18 0 -24 -28q-1 -5 -2 -12q0 -30 26 -87q16 -35 45 -105.5t64.5 -161.5t73.5 -185t69 -176h2q33 84 71.5 179t75.5 187.5t66.5 163t44.5 103.5q24 54 24 82q0 6 -2 12q-6 28 -22 28h321q-12 0 -37.5 -27.5t-58.5 -92.5q-18 -35 -53 -107t-77 -161t-82 -177 t-69.5 -160.5t-39.5 -109.5q-15 -57 -15 -85q1 -6 1 -10q4 -28 14 -28h-328q14 0 19 28q1 5 1 10q0 29 -20 85q-10 27 -39 94.5t-68 156.5t-79.5 180t-75.5 166t-56 111q-35 66 -63.5 95.5t-40.5 31.5z" />
<glyph unicode="w" horiz-adv-x="1974" d="M0 958h334q-18 0 -24 -28q-1 -5 -2 -12q0 -30 26 -87q16 -35 45 -105.5t64.5 -161.5t72.5 -185t68 -176h2q31 84 65.5 179t68.5 187.5t60.5 163t40.5 103.5q24 55 24 83q0 6 -1 11q-6 28 -23 28h328q-19 0 -25 -28q-1 -5 -1 -12q0 -30 26 -87q16 -35 44 -105.5 t61.5 -161.5t68.5 -185t63 -176h3q35 84 73.5 179t77.5 187.5t68.5 163t44.5 103.5q24 54 24 82q1 6 -1 12q-6 28 -23 28h321q-12 0 -37.5 -27.5t-58.5 -92.5q-18 -35 -53 -107t-78 -161t-84 -177t-71.5 -160.5t-41.5 -109.5q-15 -56 -15 -84q0 -5 1 -11q4 -28 14 -28h-327 q14 0 19 28q1 5 1 10q0 29 -20 85q-6 18 -31 83.5t-59.5 159t-71.5 193.5t-72 191h-6q-33 -86 -72 -183.5t-73.5 -188.5t-59 -159.5t-30.5 -95.5q-15 -57 -15 -85q1 -6 1 -10q4 -28 14 -28h-328q14 0 19 28q1 5 1 10q0 29 -20 85q-10 27 -39 94.5t-67 156.5t-78.5 180 t-75.5 166t-56 111q-35 66 -63.5 95.5t-40.5 31.5z" />
<glyph unicode="x" horiz-adv-x="1212" d="M16 0q23 0 66 28.5t94 92.5q39 47 91 112.5t105.5 132t94.5 115.5q-43 49 -100.5 115t-111.5 129t-93 106q-57 68 -94 96.5t-52 30.5h336q-16 -2 -13 -31.5t54 -95.5q23 -29 59.5 -72.5t77.5 -88.5t74 -82h4q29 35 67 80t75.5 90t62.5 78q49 66 53 94t-12 28h342 q-20 0 -62 -27.5t-96 -92.5q-37 -47 -92 -111.5t-111.5 -130.5t-101.5 -115q45 -47 104.5 -111.5t117 -129t94.5 -113.5q55 -70 94 -98.5t53 -28.5h-336q18 0 15 28.5t-56 98.5q-23 31 -61.5 76t-80.5 94t-77 86h-4q-29 -37 -68 -86t-74.5 -95t-60.5 -79q-51 -66 -54 -94.5 t13 -28.5h-336z" />
<glyph unicode="y" horiz-adv-x="1114" d="M-180 -428l41 215v61q14 -43 46 -91t81 -80.5t110 -32.5q104 0 165 61.5t114 163.5q41 82 51 113q-12 16 -39 75.5t-63.5 144.5t-76.5 181t-79 186t-69.5 160t-47.5 100q-35 66 -63.5 96.5t-40.5 32.5h334q-16 0 -21 -30q-1 -4 -1 -11q0 -30 22 -88q16 -39 44.5 -111.5 t63.5 -163.5t72 -184.5t67 -172.5h2q33 84 72 180t77 188t67.5 164t44.5 105q24 54 24 82q0 7 -1 12q-7 28 -23 30h321q-12 -2 -37.5 -29.5t-58.5 -92.5q-18 -35 -56 -119t-87.5 -192.5t-100.5 -224.5t-96 -217t-76 -167q-94 -207 -209 -311.5t-287 -104.5 q-123 0 -194.5 24.5t-91.5 47.5z" />
<glyph unicode="z" horiz-adv-x="1097" d="M41 774v184h975q-8 -12 -28.5 -41.5t-55.5 -72.5q-49 -63 -119 -151.5t-145.5 -184.5t-149.5 -189.5t-133 -166.5v-7h385q127 0 197.5 13.5t89.5 27.5l-41 -143v-43h-973q6 14 25.5 45t50.5 70q37 49 100.5 132t139 181t153.5 198.5t141 184.5v4h-366 q-131 0 -186.5 -13.5t-59.5 -27.5z" />
<glyph unicode="{" horiz-adv-x="555" d="M61 602q29 16 64 4t59.5 -53t24.5 -115v-397q0 -92 38 -148.5t126 -56.5h100q0 35 7 62.5t14 40.5q-10 -6 -33 -13.5t-49 -7.5q-37 0 -59.5 26.5t-22.5 116.5v347q0 102 -37 156t-72 67v4q35 14 72 74.5t37 169.5v307q0 92 23.5 117.5t58.5 25.5q27 0 49 -7t33 -13 q-6 10 -13.5 37.5t-7.5 64.5h-100q-88 0 -126 -56.5t-38 -150.5v-356q0 -78 -24.5 -122t-58.5 -58.5t-65 -3.5v-62z" />
<glyph unicode="|" horiz-adv-x="434" d="M143 -348v1761h144v-1761h-144z" />
<glyph unicode="}" horiz-adv-x="555" d="M61 -61q10 -6 33 -13.5t49 -7.5q37 0 59.5 26.5t22.5 116.5v347q0 102 37 156t72 67v4q-35 14 -72 74.5t-37 169.5v307q0 92 -23.5 117.5t-58.5 25.5q-27 0 -49 -7t-33 -13q6 10 13.5 37.5t7.5 64.5h100q88 0 126 -56.5t38 -150.5v-356q0 -78 24.5 -122t58.5 -58.5 t65 -3.5v-62q-29 16 -64 4t-59.5 -53t-24.5 -115v-397q0 -92 -38 -148.5t-126 -56.5h-100q0 35 -7 62.5t-14 40.5z" />
<glyph unicode="~" horiz-adv-x="862" d="M61 484q0 102 47 173.5t158 71.5q68 0 117 -18t87.5 -43t77.5 -43t88 -18q41 0 60.5 23.5t19.5 55.5q0 18 -7 29.5t-13 13.5h104q0 -111 -49 -178t-158 -67q-68 0 -114.5 18.5t-85.5 43t-78 43t-90 18.5q-80 0 -80 -62q0 -20 7 -36.5t13 -24.5h-104z" />
<glyph unicode="&#xa1;" horiz-adv-x="577" d="M164 -141q0 33 5 97t15.5 145t22.5 164t26.5 152.5t27.5 112.5t26 43q14 0 30.5 -59t32 -152.5t28.5 -193.5t20.5 -185t7.5 -126q0 -59 -18.5 -101.5t-104.5 -42.5q-57 0 -82 19.5t-31 52.5t-6 74zM164 870q0 47 31.5 80t93.5 33q61 0 93 -32.5t32 -80.5q0 -45 -33 -78.5 t-92 -33.5t-92 33.5t-33 78.5z" />
<glyph unicode="&#xa2;" horiz-adv-x="1146" d="M72 477q0 250 134 375t388 125v6q0 55 -7 85t-14 38h211q-14 -6 -28.5 -37t-14.5 -88v-8q94 -6 168 -16.5t115 -18.5v-61l41 -179q-37 35 -121 73t-203 54v-696q117 12 195 59.5t108 90.5v-62l21 -139q-33 -27 -116 -54.5t-208 -39.5q2 -47 9.5 -74t13.5 -33h-211 q12 6 24.5 30.5t16.5 72.5q-201 6 -314.5 72.5t-160.5 177t-47 247.5zM279 475q0 -123 39.5 -195.5t110.5 -107.5t165 -43v705q-84 -4 -155.5 -37t-115.5 -110t-44 -212z" />
<glyph unicode="&#xa3;" horiz-adv-x="1243" d="M102 553q14 23 27.5 63.5t13.5 79.5h144v62q0 166 61.5 274.5t159.5 162.5t211 54q94 0 153.5 -20.5t79.5 -40.5l-20 -144v-61q-25 35 -81 68.5t-132 33.5q-53 0 -100.5 -24.5t-75 -95t-27.5 -207.5v-62h152q94 0 144 7.5t60 13.5q-14 -20 -27.5 -60.5t-13.5 -83.5h-315 v-122q0 -129 -23.5 -197t-46.5 -82v-6h428q109 0 176.5 27.5t90.5 54.5l-41 -185v-63h-957q66 35 105 99.5t39 166.5v307q-82 -2 -127 -8t-58 -12z" />
<glyph unicode="&#xa4;" horiz-adv-x="1091" d="M102 608q0 172 105 271l-101 84l89 88l96 -115q102 51 254 51t256 -53l96 117l88 -88l-102 -84q106 -100 106 -271q0 -168 -104 -264l100 -82l-88 -88l-96 115q-102 -49 -256 -49q-152 0 -256 49l-94 -115l-89 88l99 82q-102 96 -103 264zM309 606q0 -119 63.5 -170 t172.5 -51t172 49t63 174q0 133 -63.5 184.5t-171.5 51.5q-106 0 -171 -55.5t-65 -182.5z" />
<glyph unicode="&#xa5;" horiz-adv-x="1476" d="M102 1229h441q-16 0 -21.5 -29t21.5 -98q18 -45 53 -124t74 -164t69 -155h2q31 63 69 147.5t76 165.5t62 134q31 66 17.5 94.5t-37.5 28.5h446q-14 -8 -52 -38t-85 -83q-33 -37 -87 -109.5t-114 -158.5h41q94 0 144.5 7t60.5 13q-14 -27 -27.5 -69.5t-13.5 -73.5h-291 q-51 -76 -96 -144h223q94 0 144.5 7.5t60.5 13.5q-14 -20 -27.5 -60t-13.5 -83h-387v-328q0 -68 13.5 -95.5t27.5 -27.5h-342q23 0 47.5 27.5t24.5 95.5v328h-133q-113 0 -172.5 -7.5t-73.5 -13.5q14 16 27.5 54t13.5 89h338q-20 33 -45 70l-50 74h-79q-113 0 -172.5 -7.5 t-73.5 -13.5q14 23 27.5 64t13.5 80h203q-59 86 -112.5 156.5t-86.5 105.5q-51 53 -91 86t-57 41z" />
<glyph unicode="&#xa6;" horiz-adv-x="348" d="M102 -225v655h144v-655h-144zM102 758v655h144v-655h-144z" />
<glyph unicode="&#xa7;" horiz-adv-x="868" d="M102 618q0 55 31 93.5t76 57.5t90 19v7q-82 41 -129 109.5t-47 131.5q0 106 71.5 173t233.5 67q100 0 168 -15.5t92 -29.5l-20 -144v-59q-23 35 -84.5 70t-155.5 35q-72 0 -104.5 -27t-32.5 -68q0 -51 46 -95t179 -103q152 -68 201 -149t49 -177q0 -78 -30.5 -126 t-59.5 -71q53 -63 53 -159q0 -63 -31.5 -124t-101 -98.5t-188.5 -37.5q-111 0 -177.5 14t-87.5 29l21 157v62q27 -39 95.5 -79t168.5 -40q66 0 99.5 27.5t33.5 74.5q0 41 -19.5 73t-72.5 67.5t-156 85.5q-123 61 -167 117.5t-44 131.5zM270 633q0 -39 34 -74t128 -76 q55 -25 100 -47t78 -49q12 31 13 68q0 59 -27 118.5t-102 98.5q-51 29 -102.5 32t-86.5 -14.5t-35 -56.5z" />
<glyph unicode="&#xa8;" horiz-adv-x="843" d="M137 1270q0 47 32 80t93 33t93 -33t32 -80q0 -45 -33 -78.5t-92 -33.5t-92 33.5t-33 78.5zM485 1270q0 47 32 80t93 33t93 -33t32 -80q0 -45 -33 -78.5t-92 -33.5t-92 33.5t-33 78.5z" />
<glyph unicode="&#xa9;" horiz-adv-x="1589" d="M102 614q0 209 86 350.5t242 213t365 71.5q211 0 365.5 -71.5t240.5 -213t86 -350.5t-86 -350t-240.5 -212.5t-365.5 -71.5q-209 0 -365 71.5t-242 213t-86 349.5zM236 614q0 -178 73.5 -291.5t200.5 -167t285 -53.5q160 0 285.5 53.5t199.5 167t74 291.5q0 176 -74 290 t-200 168t-285 54q-158 0 -285 -54t-200.5 -167.5t-73.5 -290.5zM498 610q0 276 295 277q88 0 148 -11.5t83 -21.5v-23l23 -139q-27 23 -91.5 48.5t-154.5 25.5q-66 0 -107 -34t-41 -122q0 -86 45 -118.5t133 -32.5q76 0 129.5 24.5t73.5 46.5v-22l13 -117 q-23 -16 -85.5 -35.5t-156.5 -19.5q-119 0 -185.5 37t-94 98t-27.5 139z" />
<glyph unicode="&#xaa;" horiz-adv-x="618" d="M51 816q0 71 54.5 112t165.5 41q80 0 128 -16t65 -27q-2 91 -35 129.5t-117 38.5q-60 0 -108 -14t-76.5 -30t-35.5 -23v21l-10 76q8 4 39 14t81 19t118 9q130 0 189 -55t59 -169v-204q0 -29 7 -42t13 -20h-124v30l2 20l-2 1q-34 -31 -88.5 -46t-123.5 -15q-111 0 -156 40 t-45 110zM154 816q0 -40 31.5 -59t100.5 -19q84 0 131 24t47 62q0 30 -41 51.5t-125 21.5q-80 0 -112 -20.5t-32 -60.5z" />
<glyph unicode="&#xab;" horiz-adv-x="942" d="M103 614l266 -348h164l-267 348l267 349h-164zM410 614l266 -348h164l-267 348l267 349h-164z" />
<glyph unicode="&#xac;" horiz-adv-x="1077" d="M102 614v123h873v-409h-125v286h-748z" />
<glyph unicode="&#xad;" horiz-adv-x="770" d="M61 410q14 23 27.5 63.5t13.5 79.5h402q104 0 152.5 7t52.5 13q-14 -20 -27.5 -60t-13.5 -83h-361q-113 0 -172.5 -7t-73.5 -13z" />
<glyph unicode="&#xae;" horiz-adv-x="739" d="M61 1112q0 139 84 211t226 72q139 0 223 -72t84 -211t-84 -210t-223 -71q-141 0 -225.5 71t-84.5 210zM121 1112q0 -119 72 -173t178 -54q104 0 175.5 54t71.5 173t-71.5 173t-175.5 54q-106 0 -178 -54t-72 -173zM231 1257h162q63 0 91 -24.5t26 -67.5q0 -31 -21.5 -53 t-50.5 -25q31 -12 51.5 -31.5t36.5 -45.5q23 -39 23 -47h-94q18 0 6 26q-14 35 -44 58.5t-89 23.5h-6q-14 0 -17.5 -2t-3.5 -12v-66q0 -29 10 -28h-78q8 0 9 28v236q0 29 -11 30zM301 1128q0 -10 3.5 -12t17.5 -2h55q74 0 74 51q0 25 -14.5 36t-53.5 11h-61q-14 0 -17.5 -1 t-3.5 -11v-72z" />
<glyph unicode="&#xaf;" horiz-adv-x="819" d="M45 1137q14 16 27.5 50t13.5 73h483q104 0 152.5 7t52.5 13q-14 -20 -27.5 -56t-13.5 -67h-442q-113 0 -172.5 -7t-73.5 -13z" />
<glyph unicode="&#xb0;" horiz-adv-x="614" d="M61 1227q0 68 33 124t89.5 89t123.5 33q68 0 123 -33t89 -89.5t34 -123.5q0 -68 -34 -124t-89 -89t-123 -33t-124 33t-89 89t-33 124zM186 1227q0 -49 36 -85t85 -36t85 36t36 85t-36 85t-85 36t-85 -36t-36 -85z" />
<glyph unicode="&#xb1;" horiz-adv-x="819" d="M61 61v123h779v-123h-779zM61 553v123h287v287h123v-287h287v-123h-287v-287h-123v287h-287z" />
<glyph unicode="&#xb2;" horiz-adv-x="641" d="M62 911v11q10 22 49.5 74.5t108.5 124.5q50 51 96.5 91.5t77 78.5t30.5 80q0 39 -23.5 61t-77.5 22q-49 0 -92 -15.5t-76.5 -37.5t-52.5 -43v21l-20 95q22 20 83 41t156 21q83 0 130.5 -22t67.5 -56t20 -72q0 -54 -25.5 -98.5t-68.5 -86t-93 -86.5q-54 -46 -93 -76.5 t-56 -41.5v-3h223q62 0 101 10t53 20l-20 -82v-31h-498z" />
<glyph unicode="&#xb3;" horiz-adv-x="671" d="M82 942l22 99v21q14 -17 43.5 -35.5t74 -31.5t102.5 -13q82 0 116.5 28t34.5 77q0 47 -37.5 71t-125.5 24h-86v77h86q67 0 94.5 30.5t27.5 83.5q0 81 -101 81q-48 0 -91.5 -15.5t-76.5 -37.5t-53 -43v21l-20 95q24 20 86 41t153 21q86 0 133 -20t66 -54.5t19 -80.5 q0 -53 -31.5 -91t-79.5 -58v-2q74 -16 113 -52t39 -98q0 -51 -25 -92t-79.5 -64t-143.5 -23q-104 0 -171 13.5t-89 27.5z" />
<glyph unicode="&#xb4;" horiz-adv-x="440" d="M65 1184q9 37 30.5 91t48 106.5t45.5 80.5q27 41 56.5 57.5t76.5 16.5h22q70 0 13 -82q-45 -63 -100.5 -135t-105.5 -122t-81 -50q-14 0 -5 37z" />
<glyph unicode="&#xb5;" horiz-adv-x="1216" d="M94 958h293q-14 0 -29.5 -28.5t-15.5 -93.5v-410q0 -174 61.5 -237.5t161.5 -63.5t174 49t116 135t42 195v332q0 66 -13.5 93t-27.5 29h250v-835q0 -66 13.5 -94.5t27.5 -28.5h-250v123l4 41l-4 4q-16 -33 -62.5 -77t-122 -77.5t-184.5 -33.5q-88 0 -159.5 21.5 t-122.5 74.5q35 -102 62.5 -183t27.5 -161q0 -63 -21 -93t-82 -30q-55 0 -76.5 40t-21.5 105v1082q0 66 -13 94t-28 28z" />
<glyph unicode="&#xb6;" horiz-adv-x="1071" d="M102 932v16q0 152 78 216.5t242 64.5h547q-14 0 -28.5 -29t-14.5 -96v-1145q0 -66 14 -94.5t29 -28.5h-224q14 0 27.5 29t13.5 94v1147h-225v-1147q0 -66 14.5 -94.5t28.5 -28.5h-223q14 0 27.5 29t13.5 94v700q-166 0 -243 68t-77 205z" />
<glyph unicode="&#xb7;" horiz-adv-x="454" d="M102 624q0 47 32 80t93 33t93 -33t32 -80q0 -45 -33 -78.5t-92 -33.5t-92 33.5t-33 78.5z" />
<glyph unicode="&#xb8;" horiz-adv-x="552" d="M61 -256q23 -23 74 -47.5t123 -24.5q100 0 100 66q0 45 -51 61.5t-123 16.5l41 184h125l-45 -115q74 -4 130 -44t56 -117q0 -74 -57.5 -124.5t-159.5 -50.5q-84 0 -139 25t-74 47v123z" />
<glyph unicode="&#xb9;" horiz-adv-x="331" d="M72 1404v92q42 0 85.5 6.5t81 16t61.5 17.5v-562q0 -34 7 -48t14 -14h-157q7 0 13.5 14t6.5 48v450z" />
<glyph unicode="&#xba;" horiz-adv-x="610" d="M36 914q0 72 24 128.5t81 90t159 33.5t159 -33.5t81 -90t24 -128.5q0 -70 -23 -126t-80 -89t-161 -33q-102 0 -160 33t-81 89t-23 126zM140 914q0 -55 13.5 -94.5t48 -60.5t98.5 -21t98.5 21t48 60t13.5 95q0 57 -14 97t-48 61.5t-98 21.5q-62 0 -97 -22t-49 -62.5 t-14 -95.5z" />
<glyph unicode="&#xbb;" horiz-adv-x="942" d="M102 266l267 348l-267 349h164l266 -349l-266 -348h-164zM409 266l267 348l-267 349h164l266 -349l-266 -348h-164z" />
<glyph unicode="&#xbc;" horiz-adv-x="1501" d="M25 0q12 2 45 30.5t80 92.5q20 29 75.5 102.5t130 175t154.5 212t154 213t126 177t68 103.5q39 66 37 94.5t-18 28.5h252q-14 0 -47 -29t-80 -96q-23 -33 -77 -108.5t-128 -177t-153 -210t-151.5 -209t-125.5 -174t-74 -102.5q-41 -59 -39 -89t21 -34h-250zM72 1076v92 q42 0 85.5 6.5t81 16t61.5 17.5v-562q0 -34 7 -48t14 -14h-157q7 0 13.5 14t6.5 48v450zM831 118q7 16 37 56q16 22 44.5 61t63 88t69 100t61.5 96q32 53 39.5 75t2.5 20h208q-6 0 -13 -14t-7 -48l-1 -352h11q61 0 97.5 7t46.5 14l-21 -83v-20h-134v-56q0 -34 7.5 -48 t13.5 -14h-156q7 0 13.5 14t6.5 48v56h-389zM988 200h232v352h-2q-15 -33 -43.5 -81.5t-63 -100.5t-67 -97t-56.5 -70v-3z" />
<glyph unicode="&#xbd;" horiz-adv-x="1400" d="M25 0q12 2 45 30.5t80 92.5q20 29 75.5 102.5t130 175t154.5 212t154 213t126 177t68 103.5q39 66 37 94.5t-18 28.5h252q-14 0 -47 -29t-80 -96q-23 -33 -77 -108.5t-128 -177t-153 -210t-151.5 -209t-125.5 -174t-74 -102.5q-41 -59 -39 -89t21 -34h-250zM72 1076v92 q42 0 85.5 6.5t81 16t61.5 17.5v-562q0 -34 7 -48t14 -14h-157q7 0 13.5 14t6.5 48v450zM852 0v12q10 21 49.5 73.5t108.5 124.5q50 51 96.5 91.5t77 78.5t30.5 80q0 39 -23.5 60.5t-77.5 21.5q-49 0 -92 -15t-76.5 -37t-52.5 -42v20l-20 95q22 21 83 41t156 20 q83 0 130.5 -21t67.5 -55.5t20 -72.5q0 -55 -25.5 -99t-68.5 -85.5t-93 -86.5q-54 -46 -93 -76t-56 -42v-3h223q62 0 101 10.5t53 20.5l-20 -82v-32h-498z" />
<glyph unicode="&#xbe;" horiz-adv-x="1759" d="M41 624l21 100v20q15 -16 44.5 -34t74.5 -31t101 -13q84 0 118 27.5t34 76.5q0 47 -38 71.5t-124 24.5h-88v76h88q66 0 93.5 30t27.5 84q0 81 -101 80q-48 0 -92 -15t-76.5 -37t-51.5 -42v20l-21 95q23 21 86 41t153 20q86 0 133 -19t66 -54t19 -81q0 -53 -31 -91 t-79 -57v-2q73 -17 112 -52.5t39 -98.5q0 -51 -24.5 -92t-79.5 -64t-144 -23q-105 0 -171 14t-89 26zM283 0q12 2 45 30.5t80 92.5q20 29 75.5 102.5t130 175t154.5 212t154 213t126 177t68 103.5q39 66 37 94.5t-18 28.5h252q-14 0 -47 -29t-80 -96q-23 -33 -77 -108.5 t-128 -177t-153 -210t-151.5 -209t-125.5 -174t-74 -102.5q-41 -59 -39 -89t21 -34h-250zM1089 118q7 16 37 56q16 22 44.5 61t63 88t69 100t61.5 96q32 53 39.5 75t2.5 20h208q-6 0 -13 -14t-7 -48l-1 -352h11q61 0 97.5 7t46.5 14l-21 -83v-20h-134v-56q0 -34 7.5 -48 t13.5 -14h-156q7 0 13.5 14t6.5 48v56h-389zM1246 200h232v352h-2q-15 -33 -43.5 -81.5t-63 -100.5t-67 -97t-56.5 -70v-3z" />
<glyph unicode="&#xbf;" horiz-adv-x="1097" d="M164 12q0 102 65.5 177t169.5 128q96 49 135 80t66 72q29 47 35 88t20 41q20 0 40 -42t20 -97q0 -53 -17.5 -87t-46.5 -63q-39 -39 -84 -69.5t-85 -60t-64.5 -66.5t-24.5 -90q0 -80 47 -123t150 -43q76 0 137 33.5t103 83t63 94.5v-62l41 -149q-37 -39 -139 -81t-256 -42 q-137 0 -219 41t-119 104.5t-37 132.5zM512 870q0 47 31.5 80t93.5 33q61 0 93 -32.5t32 -80.5q0 -45 -33 -78.5t-92 -33.5t-92 33.5t-33 78.5z" />
<glyph unicode="&#xc0;" horiz-adv-x="1519" d="M16 0q8 0 29 28.5t53 96.5q14 31 49 104.5t82 174t98.5 210t97.5 210t81 176t49 106.5q29 66 31 94.5t-8 28.5h358q-8 0 -6 -29t28 -94q14 -31 47 -105.5t79 -175t95.5 -208t96.5 -208t82 -176t51 -108.5q33 -68 60.5 -96.5t41.5 -28.5h-378q20 4 33.5 32.5t-5.5 92.5 q-4 16 -14 47t-19 45q-18 41 -37.5 51.5t-72.5 10.5h-524q-59 0 -81 -8.5t-36 -51.5q-8 -25 -16.5 -49.5t-12.5 -44.5q-18 -68 -10 -96.5t22 -28.5h-344zM477.5 1784.5q12.5 21.5 46.5 21.5h21q51 0 73.5 -15.5t43.5 -45.5q25 -37 58.5 -92.5t63 -108.5t42.5 -90t-1 -37 q-20 0 -59 30.5t-87 78t-96 100.5t-85 98q-33 39 -20.5 60.5zM483 456.5q5 -14.5 64 -14.5h411q59 0 65.5 10.5t-5.5 45.5q-37 88 -85 192.5t-94 204.5t-81 170h-4q-43 -90 -88 -187.5t-85 -182.5t-65 -138l-24 -53q-14 -33 -9 -47.5z" />
<glyph unicode="&#xc1;" horiz-adv-x="1519" d="M16 0q8 0 29 28.5t53 96.5q14 31 49 104.5t82 174t98.5 210t97.5 210t81 176t49 106.5q29 66 31 94.5t-8 28.5h358q-8 0 -6 -29t28 -94q14 -31 47 -105.5t79 -175t95.5 -208t96.5 -208t82 -176t51 -108.5q33 -68 60.5 -96.5t41.5 -28.5h-378q20 4 33.5 32.5t-5.5 92.5 q-4 16 -14 47t-19 45q-18 41 -37.5 51.5t-72.5 10.5h-524q-59 0 -81 -8.5t-36 -51.5q-8 -25 -16.5 -49.5t-12.5 -44.5q-18 -68 -10 -96.5t22 -28.5h-344zM483 456.5q5 -14.5 64 -14.5h411q59 0 65.5 10.5t-5.5 45.5q-37 88 -85 192.5t-94 204.5t-81 170h-4 q-43 -90 -88 -187.5t-85 -182.5t-65 -138l-24 -53q-14 -33 -9 -47.5zM650 1428q9 37 30.5 91t48 106.5t45.5 80.5q27 41 56.5 57.5t76.5 16.5h22q70 0 13 -82q-45 -63 -100.5 -135t-105.5 -122t-81 -50q-14 0 -5 37z" />
<glyph unicode="&#xc2;" horiz-adv-x="1519" d="M16 0q8 0 29 28.5t53 96.5q14 31 49 104.5t82 174t98.5 210t97.5 210t81 176t49 106.5q29 66 31 94.5t-8 28.5h358q-8 0 -6 -29t28 -94q14 -31 47 -105.5t79 -175t95.5 -208t96.5 -208t82 -176t51 -108.5q33 -68 60.5 -96.5t41.5 -28.5h-378q20 4 33.5 32.5t-5.5 92.5 q-4 16 -14 47t-19 45q-18 41 -37.5 51.5t-72.5 10.5h-524q-59 0 -81 -8.5t-36 -51.5q-8 -25 -16.5 -49.5t-12.5 -44.5q-18 -68 -10 -96.5t22 -28.5h-344zM461 1409q31 31 69.5 68.5t75.5 74.5t60 59q16 18 22 29.5t6 13.5h123q0 -8 27 -43q12 -14 45 -50t72.5 -76.5 t74.5 -75.5h-164l-116 139l-131 -139h-164zM483 456.5q5 -14.5 64 -14.5h411q59 0 65.5 10.5t-5.5 45.5q-37 88 -85 192.5t-94 204.5t-81 170h-4q-43 -90 -88 -187.5t-85 -182.5t-65 -138l-24 -53q-14 -33 -9 -47.5z" />
<glyph unicode="&#xc3;" horiz-adv-x="1519" d="M16 0q8 0 29 28.5t53 96.5q14 31 49 104.5t82 174t98.5 210t97.5 210t81 176t49 106.5q29 66 31 94.5t-8 28.5h358q-8 0 -6 -29t28 -94q14 -31 47 -105.5t79 -175t95.5 -208t96.5 -208t82 -176t51 -108.5q33 -68 60.5 -96.5t41.5 -28.5h-378q20 4 33.5 32.5t-5.5 92.5 q-4 16 -14 47t-19 45q-18 41 -37.5 51.5t-72.5 10.5h-524q-59 0 -81 -8.5t-36 -51.5q-8 -25 -16.5 -49.5t-12.5 -44.5q-18 -68 -10 -96.5t22 -28.5h-344zM389 1389q0 102 47 173.5t158 71.5q68 0 117 -18t87.5 -43t77.5 -43t88 -18q41 0 60.5 23.5t19.5 55.5q0 18 -7 29.5 t-13 13.5h104q0 -111 -49 -178t-158 -67q-68 0 -114.5 18.5t-85.5 43t-78 43t-90 18.5q-80 0 -80 -62q0 -20 7 -36.5t13 -24.5h-104zM483 456.5q5 -14.5 64 -14.5h411q59 0 65.5 10.5t-5.5 45.5q-37 88 -85 192.5t-94 204.5t-81 170h-4q-43 -90 -88 -187.5t-85 -182.5 t-65 -138l-24 -53q-14 -33 -9 -47.5z" />
<glyph unicode="&#xc4;" horiz-adv-x="1519" d="M16 0q8 0 29 28.5t53 96.5q14 31 49 104.5t82 174t98.5 210t97.5 210t81 176t49 106.5q29 66 31 94.5t-8 28.5h358q-8 0 -6 -29t28 -94q14 -31 47 -105.5t79 -175t95.5 -208t96.5 -208t82 -176t51 -108.5q33 -68 60.5 -96.5t41.5 -28.5h-378q20 4 33.5 32.5t-5.5 92.5 q-4 16 -14 47t-19 45q-18 41 -37.5 51.5t-72.5 10.5h-524q-59 0 -81 -8.5t-36 -51.5q-8 -25 -16.5 -49.5t-12.5 -44.5q-18 -68 -10 -96.5t22 -28.5h-344zM454 1540q0 47 32 80t93 33t93 -33t32 -80q0 -45 -33 -78.5t-92 -33.5t-92 33.5t-33 78.5zM483 456.5 q5 -14.5 64 -14.5h411q59 0 65.5 10.5t-5.5 45.5q-37 88 -85 192.5t-94 204.5t-81 170h-4q-43 -90 -88 -187.5t-85 -182.5t-65 -138l-24 -53q-14 -33 -9 -47.5zM802 1540q0 47 32 80t93 33t93 -33t32 -80q0 -45 -33 -78.5t-92 -33.5t-92 33.5t-33 78.5z" />
<glyph unicode="&#xc5;" horiz-adv-x="1519" d="M16 0q8 0 29 28.5t53 96.5q14 31 49 104.5t82 174t98.5 210t97.5 210t81 176t49 106.5q29 66 31 94.5t-8 28.5h358q-8 0 -6 -29t28 -94q14 -31 47 -105.5t79 -175t95.5 -208t96.5 -208t82 -176t51 -108.5q33 -68 60.5 -96.5t41.5 -28.5h-378q20 4 33.5 32.5t-5.5 92.5 q-4 16 -14 47t-19 45q-18 41 -37.5 51.5t-72.5 10.5h-524q-59 0 -81 -8.5t-36 -51.5q-8 -25 -16.5 -49.5t-12.5 -44.5q-18 -68 -10 -96.5t22 -28.5h-344zM483 456.5q5 -14.5 64 -14.5h411q59 0 65.5 10.5t-5.5 45.5q-37 88 -85 192.5t-94 204.5t-81 170h-4 q-43 -90 -88 -187.5t-85 -182.5t-65 -138l-24 -53q-14 -33 -9 -47.5zM534 1558q0 92 65.5 157.5t158.5 65.5q92 0 157.5 -65.5t65.5 -157.5t-65.5 -157.5t-157.5 -65.5t-158 65.5t-66 157.5zM649 1558q0 -45 32 -76.5t77 -31.5t76.5 31.5t31.5 76.5t-31.5 77t-76.5 32 t-77 -32t-32 -77z" />
<glyph unicode="&#xc6;" horiz-adv-x="2154" d="M16 0q6 2 28 31.5t54 93.5q16 31 50 104.5t80 175t96.5 211t96.5 210t82 175t52 105.5q37 66 37 94.5t-17 28.5h1455v-41l41 -197q-51 23 -180.5 48.5t-311.5 25.5h-346q-61 0 -72.5 -9t-11.5 -52v-234q0 -45 11 -53t71 -8h338q119 0 191.5 13t94.5 28q-14 -39 -27 -99.5 t-13 -105.5h-584q-59 0 -70.5 -7.5t-11.5 -54.5v-254q0 -47 10 -55t72 -8h596q119 0 191.5 27.5t95.5 54.5l-41 -185v-63h-1196q14 0 28.5 28.5t14.5 94.5v156h-426q-59 0 -81 -8.5t-36 -51.5q-8 -25 -16.5 -49.5t-12.5 -44.5q-18 -68 -10 -96.5t22 -28.5h-344zM483 456.5 q5 -14.5 64 -14.5h373v623h-166q-43 -90 -88 -187.5t-85 -182.5t-65 -138l-24 -53q-14 -33 -9 -47.5z" />
<glyph unicode="&#xc7;" horiz-adv-x="1415" d="M92 614q0 190 72 333t227.5 222.5t403.5 79.5q195 0 323.5 -20.5t173.5 -40.5v-41l41 -184q-57 41 -198.5 81.5t-335.5 40.5q-182 0 -286.5 -60t-147.5 -166.5t-43 -244.5q0 -137 44 -242.5t159.5 -166t332.5 -60.5q176 0 294 42t161 81v-61l20 -125 q-35 -33 -168.5 -67.5t-369.5 -34.5q-352 0 -527.5 152.5t-175.5 481.5zM577 -256q23 -23 74 -47.5t123 -24.5q100 0 100 66q0 45 -51 61.5t-123 16.5l41 184h125l-45 -115q74 -4 130 -44t56 -117q0 -74 -57.5 -124.5t-159.5 -50.5q-84 0 -139 25t-74 47v123z" />
<glyph unicode="&#xc8;" horiz-adv-x="1400" d="M123 0q14 0 28.5 28.5t14.5 94.5v983q0 66 -14.5 93.5t-28.5 29.5h1153v-41l41 -197q-51 23 -180 48.5t-312 25.5h-346q-61 0 -72.5 -9t-11.5 -52v-234q0 -45 11.5 -53t70.5 -8h338q119 0 191.5 13t95.5 28q-14 -39 -27.5 -99.5t-13.5 -105.5h-584q-59 0 -70.5 -7.5 t-11.5 -54.5v-254q0 -47 10.5 -55t71.5 -8h596q119 0 191.5 27.5t95.5 54.5l-41 -185v-63h-1196zM465.5 1784.5q12.5 21.5 46.5 21.5h21q51 0 73.5 -15.5t43.5 -45.5q25 -37 58.5 -92.5t63 -108.5t42.5 -90t-1 -37q-20 0 -59 30.5t-87 78t-96 100.5t-85 98 q-33 39 -20.5 60.5z" />
<glyph unicode="&#xc9;" horiz-adv-x="1400" d="M123 0q14 0 28.5 28.5t14.5 94.5v983q0 66 -14.5 93.5t-28.5 29.5h1153v-41l41 -197q-51 23 -180 48.5t-312 25.5h-346q-61 0 -72.5 -9t-11.5 -52v-234q0 -45 11.5 -53t70.5 -8h338q119 0 191.5 13t95.5 28q-14 -39 -27.5 -99.5t-13.5 -105.5h-584q-59 0 -70.5 -7.5 t-11.5 -54.5v-254q0 -47 10.5 -55t71.5 -8h596q119 0 191.5 27.5t95.5 54.5l-41 -185v-63h-1196zM638 1428q9 37 30.5 91t48 106.5t45.5 80.5q27 41 56.5 57.5t76.5 16.5h22q70 0 13 -82q-45 -63 -100.5 -135t-105.5 -122t-81 -50q-14 0 -5 37z" />
<glyph unicode="&#xca;" horiz-adv-x="1400" d="M123 0q14 0 28.5 28.5t14.5 94.5v983q0 66 -14.5 93.5t-28.5 29.5h1153v-41l41 -197q-51 23 -180 48.5t-312 25.5h-346q-61 0 -72.5 -9t-11.5 -52v-234q0 -45 11.5 -53t70.5 -8h338q119 0 191.5 13t95.5 28q-14 -39 -27.5 -99.5t-13.5 -105.5h-584q-59 0 -70.5 -7.5 t-11.5 -54.5v-254q0 -47 10.5 -55t71.5 -8h596q119 0 191.5 27.5t95.5 54.5l-41 -185v-63h-1196zM449 1409q31 31 69.5 68.5t75.5 74.5t60 59q16 18 22 29.5t6 13.5h123q0 -8 27 -43q12 -14 45 -50t72.5 -76.5t74.5 -75.5h-164l-116 139l-131 -139h-164z" />
<glyph unicode="&#xcb;" horiz-adv-x="1400" d="M123 0q14 0 28.5 28.5t14.5 94.5v983q0 66 -14.5 93.5t-28.5 29.5h1153v-41l41 -197q-51 23 -180 48.5t-312 25.5h-346q-61 0 -72.5 -9t-11.5 -52v-234q0 -45 11.5 -53t70.5 -8h338q119 0 191.5 13t95.5 28q-14 -39 -27.5 -99.5t-13.5 -105.5h-584q-59 0 -70.5 -7.5 t-11.5 -54.5v-254q0 -47 10.5 -55t71.5 -8h596q119 0 191.5 27.5t95.5 54.5l-41 -185v-63h-1196zM442 1540q0 47 32 80t93 33t93 -33t32 -80q0 -45 -33 -78.5t-92 -33.5t-92 33.5t-33 78.5zM790 1540q0 47 32 80t93 33t93 -33t32 -80q0 -45 -33 -78.5t-92 -33.5t-92 33.5 t-33 78.5z" />
<glyph unicode="&#xcc;" horiz-adv-x="561" d="M0.5 1784.5q12.5 21.5 46.5 21.5h21q51 0 73.5 -15.5t43.5 -45.5q25 -37 58.5 -92.5t63 -108.5t42.5 -90t-1 -37q-20 0 -59 30.5t-87 78t-96 100.5t-85 98q-33 39 -20.5 60.5zM123 0q14 0 28.5 28.5t14.5 94.5v983q0 66 -14.5 93.5t-28.5 29.5h315q-14 0 -28.5 -29 t-14.5 -96v-981q0 -66 14.5 -94.5t28.5 -28.5h-315z" />
<glyph unicode="&#xcd;" horiz-adv-x="561" d="M123 0q14 0 28.5 28.5t14.5 94.5v983q0 66 -14.5 93.5t-28.5 29.5h315q-14 0 -28.5 -29t-14.5 -96v-981q0 -66 14.5 -94.5t28.5 -28.5h-315zM173 1428q9 37 30.5 91t48 106.5t45.5 80.5q27 41 56.5 57.5t76.5 16.5h22q70 0 13 -82q-45 -63 -100.5 -135t-105.5 -122 t-81 -50q-14 0 -5 37z" />
<glyph unicode="&#xce;" horiz-adv-x="561" d="M-16 1409q31 31 69.5 68.5t75.5 74.5t60 59q16 18 22 29.5t6 13.5h123q0 -8 27 -43q12 -14 45 -50t72.5 -76.5t74.5 -75.5h-164l-116 139l-131 -139h-164zM123 0q14 0 28.5 28.5t14.5 94.5v983q0 66 -14.5 93.5t-28.5 29.5h315q-14 0 -28.5 -29t-14.5 -96v-981 q0 -66 14.5 -94.5t28.5 -28.5h-315z" />
<glyph unicode="&#xcf;" horiz-adv-x="561" d="M-23 1540q0 47 32 80t93 33t93 -33t32 -80q0 -45 -33 -78.5t-92 -33.5t-92 33.5t-33 78.5zM123 0q14 0 28.5 28.5t14.5 94.5v983q0 66 -14.5 93.5t-28.5 29.5h315q-14 0 -28.5 -29t-14.5 -96v-981q0 -66 14.5 -94.5t28.5 -28.5h-315zM325 1540q0 47 32 80t93 33t93 -33 t32 -80q0 -45 -33 -78.5t-92 -33.5t-92 33.5t-33 78.5z" />
<glyph unicode="&#xd0;" horiz-adv-x="1538" d="M0 553l2 123h707v-123h-709zM123 0q14 0 28.5 28.5t14.5 94.5v983q0 66 -14.5 93.5t-28.5 29.5h643q182 0 304 -35t196.5 -96.5t113.5 -140t52.5 -167t13.5 -178.5q0 -82 -13.5 -169t-53.5 -165.5t-114.5 -141t-196.5 -99.5t-302 -37h-643zM395 227q0 -45 11.5 -53 t70.5 -8h252q262 0 375 102.5t113 329.5v37q0 160 -45.5 253t-152 133t-290.5 40h-252q-59 0 -70.5 -7t-11.5 -50v-777z" />
<glyph unicode="&#xd1;" d="M123 0q14 0 28.5 28.5t14.5 94.5v983q0 66 -14.5 93.5t-28.5 29.5h317q-2 -6 15.5 -37t64.5 -90q14 -18 60.5 -73.5t116 -136.5t150.5 -176t164 -192.5t158 -185.5h5v768q0 66 -14.5 93.5t-29.5 29.5h316q-14 0 -28.5 -29t-14.5 -96v-981q0 -66 14.5 -94.5t28.5 -28.5 h-268q2 6 -16.5 38t-65.5 89q-31 39 -89.5 109.5t-132 161.5t-156.5 191.5t-164 201t-153 186.5h-6v-854q0 -66 14.5 -94.5t28.5 -28.5h-315zM420 1389q0 102 47 173.5t158 71.5q68 0 117 -18t87.5 -43t77.5 -43t88 -18q41 0 60.5 23.5t19.5 55.5q0 18 -7 29.5t-13 13.5h104 q0 -111 -49 -178t-158 -67q-68 0 -114.5 18.5t-85.5 43t-78 43t-90 18.5q-80 0 -80 -62q0 -20 7 -36.5t13 -24.5h-104z" />
<glyph unicode="&#xd2;" d="M92 621q0 195 68.5 335t215 216.5t382.5 76.5h63q231 0 375.5 -75.5t212.5 -217t68 -335.5q0 -303 -156 -472t-500 -169h-63q-352 0 -509 168.5t-157 472.5zM322 621q0 -176 50 -280.5t152 -150t254 -45.5h23q154 0 252 45.5t146 148.5t48 282q0 260 -110.5 362 t-335.5 102h-23q-231 0 -343.5 -104t-112.5 -360zM503.5 1784.5q12.5 21.5 46.5 21.5h21q51 0 73.5 -15.5t43.5 -45.5q25 -37 58.5 -92.5t63 -108.5t42.5 -90t-1 -37q-20 0 -59 30.5t-87 78t-96 100.5t-85 98q-33 39 -20.5 60.5z" />
<glyph unicode="&#xd3;" d="M92 621q0 195 68.5 335t215 216.5t382.5 76.5h63q231 0 375.5 -75.5t212.5 -217t68 -335.5q0 -303 -156 -472t-500 -169h-63q-352 0 -509 168.5t-157 472.5zM322 621q0 -176 50 -280.5t152 -150t254 -45.5h23q154 0 252 45.5t146 148.5t48 282q0 260 -110.5 362 t-335.5 102h-23q-231 0 -343.5 -104t-112.5 -360zM677 1428q9 37 30.5 91t48 106.5t45.5 80.5q27 41 56.5 57.5t76.5 16.5h22q70 0 13 -82q-45 -63 -100.5 -135t-105.5 -122t-81 -50q-14 0 -5 37z" />
<glyph unicode="&#xd4;" d="M92 621q0 195 68.5 335t215 216.5t382.5 76.5h63q231 0 375.5 -75.5t212.5 -217t68 -335.5q0 -303 -156 -472t-500 -169h-63q-352 0 -509 168.5t-157 472.5zM322 621q0 -176 50 -280.5t152 -150t254 -45.5h23q154 0 252 45.5t146 148.5t48 282q0 260 -110.5 362 t-335.5 102h-23q-231 0 -343.5 -104t-112.5 -360zM488 1409q31 31 69.5 68.5t75.5 74.5t60 59q16 18 22 29.5t6 13.5h123q0 -8 27 -43q12 -14 45 -50t72.5 -76.5t74.5 -75.5h-164l-116 139l-131 -139h-164z" />
<glyph unicode="&#xd5;" d="M92 621q0 195 68.5 335t215 216.5t382.5 76.5h63q231 0 375.5 -75.5t212.5 -217t68 -335.5q0 -303 -156 -472t-500 -169h-63q-352 0 -509 168.5t-157 472.5zM322 621q0 -176 50 -280.5t152 -150t254 -45.5h23q154 0 252 45.5t146 148.5t48 282q0 260 -110.5 362 t-335.5 102h-23q-231 0 -343.5 -104t-112.5 -360zM416 1389q0 102 47 173.5t158 71.5q68 0 117 -18t87.5 -43t77.5 -43t88 -18q41 0 60.5 23.5t19.5 55.5q0 18 -7 29.5t-13 13.5h104q0 -111 -49 -178t-158 -67q-68 0 -114.5 18.5t-85.5 43t-78 43t-90 18.5q-80 0 -80 -62 q0 -20 7 -36.5t13 -24.5h-104z" />
<glyph unicode="&#xd6;" d="M92 621q0 195 68.5 335t215 216.5t382.5 76.5h63q231 0 375.5 -75.5t212.5 -217t68 -335.5q0 -303 -156 -472t-500 -169h-63q-352 0 -509 168.5t-157 472.5zM322 621q0 -176 50 -280.5t152 -150t254 -45.5h23q154 0 252 45.5t146 148.5t48 282q0 260 -110.5 362 t-335.5 102h-23q-231 0 -343.5 -104t-112.5 -360zM481 1540q0 47 32 80t93 33t93 -33t32 -80q0 -45 -33 -78.5t-92 -33.5t-92 33.5t-33 78.5zM829 1540q0 47 32 80t93 33t93 -33t32 -80q0 -45 -33 -78.5t-92 -33.5t-92 33.5t-33 78.5z" />
<glyph unicode="&#xd7;" horiz-adv-x="794" d="M61 356l258 258l-258 258l86 86l259 -258l262 263l86 -86l-262 -263l262 -262l-86 -86l-262 262l-259 -258z" />
<glyph unicode="&#xd8;" d="M92 621q0 195 68.5 335t215 216.5t382.5 76.5h63q231 0 375.5 -75.5t212.5 -217t68 -335.5q0 -303 -156 -472t-500 -169h-63q-352 0 -509 168.5t-157 472.5zM217 -123l991 1475h150l-991 -1475h-150zM322 621q0 -176 50 -280.5t152 -150t254 -45.5h23q154 0 252 45.5 t146 148.5t48 282q0 260 -110.5 362t-335.5 102h-23q-231 0 -343.5 -104t-112.5 -360z" />
<glyph unicode="&#xd9;" horiz-adv-x="1505" d="M102 1229h312q-14 -2 -27.5 -28.5t-13.5 -92.5v-573q0 -215 99 -302.5t273 -87.5h23q176 0 270.5 86t94.5 304v573q0 66 -13.5 93.5t-27.5 27.5h311q-14 -2 -27.5 -30t-13.5 -93v-576q0 -258 -146.5 -404t-451.5 -146h-21q-311 0 -455.5 146t-144.5 404v578 q0 66 -13 93.5t-28 27.5zM473.5 1784.5q12.5 21.5 46.5 21.5h21q51 0 73.5 -15.5t43.5 -45.5q25 -37 58.5 -92.5t63 -108.5t42.5 -90t-1 -37q-20 0 -59 30.5t-87 78t-96 100.5t-85 98q-33 39 -20.5 60.5z" />
<glyph unicode="&#xda;" horiz-adv-x="1505" d="M102 1229h312q-14 -2 -27.5 -28.5t-13.5 -92.5v-573q0 -215 99 -302.5t273 -87.5h23q176 0 270.5 86t94.5 304v573q0 66 -13.5 93.5t-27.5 27.5h311q-14 -2 -27.5 -30t-13.5 -93v-576q0 -258 -146.5 -404t-451.5 -146h-21q-311 0 -455.5 146t-144.5 404v578 q0 66 -13 93.5t-28 27.5zM646 1428q9 37 30.5 91t48 106.5t45.5 80.5q27 41 56.5 57.5t76.5 16.5h22q70 0 13 -82q-45 -63 -100.5 -135t-105.5 -122t-81 -50q-14 0 -5 37z" />
<glyph unicode="&#xdb;" horiz-adv-x="1505" d="M102 1229h312q-14 -2 -27.5 -28.5t-13.5 -92.5v-573q0 -215 99 -302.5t273 -87.5h23q176 0 270.5 86t94.5 304v573q0 66 -13.5 93.5t-27.5 27.5h311q-14 -2 -27.5 -30t-13.5 -93v-576q0 -258 -146.5 -404t-451.5 -146h-21q-311 0 -455.5 146t-144.5 404v578 q0 66 -13 93.5t-28 27.5zM457 1409q31 31 69.5 68.5t75.5 74.5t60 59q16 18 22 29.5t6 13.5h123q0 -8 27 -43q12 -14 45 -50t72.5 -76.5t74.5 -75.5h-164l-116 139l-131 -139h-164z" />
<glyph unicode="&#xdc;" horiz-adv-x="1505" d="M102 1229h312q-14 -2 -27.5 -28.5t-13.5 -92.5v-573q0 -215 99 -302.5t273 -87.5h23q176 0 270.5 86t94.5 304v573q0 66 -13.5 93.5t-27.5 27.5h311q-14 -2 -27.5 -30t-13.5 -93v-576q0 -258 -146.5 -404t-451.5 -146h-21q-311 0 -455.5 146t-144.5 404v578 q0 66 -13 93.5t-28 27.5zM450 1540q0 47 32 80t93 33t93 -33t32 -80q0 -45 -33 -78.5t-92 -33.5t-92 33.5t-33 78.5zM798 1540q0 47 32 80t93 33t93 -33t32 -80q0 -45 -33 -78.5t-92 -33.5t-92 33.5t-33 78.5z" />
<glyph unicode="&#xdd;" horiz-adv-x="1458" d="M10 1229h400q-14 -2 -10.5 -31t51.5 -96q29 -39 78 -107.5t104 -141.5t98 -132h2q43 53 97.5 123.5t106.5 141.5t85 120q47 70 51 96.5t-10 26.5h385q-10 0 -45 -27.5t-92 -93.5q-117 -135 -232.5 -270.5t-232.5 -270.5v-444q0 -68 13 -95.5t28 -27.5h-322 q16 0 33.5 27.5t17.5 95.5v444q-57 68 -124.5 147t-133 155.5t-119 138t-81.5 94.5q-59 66 -97 95.5t-51 31.5zM622 1428q9 37 30.5 91t48 106.5t45.5 80.5q27 41 56.5 57.5t76.5 16.5h22q70 0 13 -82q-45 -63 -100.5 -135t-105.5 -122t-81 -50q-14 0 -5 37z" />
<glyph unicode="&#xde;" horiz-adv-x="1378" d="M123 1229h272v-236h400q186 0 293.5 -43t152.5 -127t45 -209q0 -100 -18.5 -179t-69.5 -131t-148.5 -79.5t-254.5 -27.5h-400v-74q0 -66 14.5 -94.5t28.5 -28.5h-313q14 0 27.5 28.5t13.5 94.5v983q0 66 -14.5 93.5t-28.5 29.5zM395 416q0 -41 10.5 -49.5t73.5 -8.5h316 q113 0 169 33t75.5 90.5t19.5 132.5q0 119 -68.5 165t-195.5 46h-316q-63 0 -73.5 -7t-10.5 -48v-354z" />
<glyph unicode="&#xdf;" horiz-adv-x="1396" d="M41 -55q14 -8 39.5 -15.5t52.5 -7.5q80 0 119 39t39 164v690h-148v143h152q20 203 139 309.5t293 106.5q188 0 280.5 -95t92.5 -232q0 -47 4 -68t8 -21q-98 -31 -142 -74.5t-44 -103.5q0 -33 21.5 -66.5t90.5 -74.5q88 -49 151.5 -98t99.5 -110.5t36 -147.5 q0 -51 -17.5 -104.5t-61.5 -98.5t-124 -72.5t-207 -27.5q-139 0 -214.5 35.5t-92.5 68.5l21 145v41q35 -47 116.5 -96t194.5 -49q80 0 118 39t38 102q0 84 -55.5 134.5t-143.5 107.5q-86 57 -129 112.5t-43 135.5q0 90 55.5 157.5t130.5 106.5v29q0 72 -38.5 127t-141.5 55 q-233 0 -233 -342v-787q0 -156 -79 -241.5t-229 -85.5q-61 0 -99 7t-50 13v150z" />
<glyph unicode="&#xe0;" horiz-adv-x="1239" d="M82 279q0 143 108.5 225t331.5 82q160 0 256 -32t129 -54q-2 182 -68.5 259t-234.5 77q-121 0 -216 -28t-152.5 -59.5t-71.5 -46.5v41l-21 154q18 8 80 27.5t162 37t236 17.5q258 0 376.5 -109.5t118.5 -337.5v-409q0 -57 13.5 -83t27.5 -40h-250v61l4 39l-4 2 q-68 -61 -176.5 -91.5t-245.5 -30.5q-223 0 -313 80.5t-90 218.5zM289 279q0 -80 62.5 -117t201.5 -37q166 0 260 48t94 122q0 61 -81 104t-251 43q-158 0 -222 -41t-64 -122zM350.5 1514.5q12.5 21.5 46.5 21.5h21q51 0 73.5 -15.5t43.5 -45.5q25 -37 58.5 -92.5t63 -108.5 t42.5 -90t-1 -37q-20 0 -59 30.5t-87 78t-96 100.5t-85 98q-33 39 -20.5 60.5z" />
<glyph unicode="&#xe1;" horiz-adv-x="1239" d="M82 279q0 143 108.5 225t331.5 82q160 0 256 -32t129 -54q-2 182 -68.5 259t-234.5 77q-121 0 -216 -28t-152.5 -59.5t-71.5 -46.5v41l-21 154q18 8 80 27.5t162 37t236 17.5q258 0 376.5 -109.5t118.5 -337.5v-409q0 -57 13.5 -83t27.5 -40h-250v61l4 39l-4 2 q-68 -61 -176.5 -91.5t-245.5 -30.5q-223 0 -313 80.5t-90 218.5zM289 279q0 -80 62.5 -117t201.5 -37q166 0 260 48t94 122q0 61 -81 104t-251 43q-158 0 -222 -41t-64 -122zM524 1157q9 37 30.5 91t48 106.5t45.5 80.5q27 41 56.5 57.5t76.5 16.5h22q70 0 13 -82 q-45 -63 -100.5 -135t-105.5 -122t-81 -50q-14 0 -5 37z" />
<glyph unicode="&#xe2;" horiz-adv-x="1239" d="M82 279q0 143 108.5 225t331.5 82q160 0 256 -32t129 -54q-2 182 -68.5 259t-234.5 77q-121 0 -216 -28t-152.5 -59.5t-71.5 -46.5v41l-21 154q18 8 80 27.5t162 37t236 17.5q258 0 376.5 -109.5t118.5 -337.5v-409q0 -57 13.5 -83t27.5 -40h-250v61l4 39l-4 2 q-68 -61 -176.5 -91.5t-245.5 -30.5q-223 0 -313 80.5t-90 218.5zM289 279q0 -80 62.5 -117t201.5 -37q166 0 260 48t94 122q0 61 -81 104t-251 43q-158 0 -222 -41t-64 -122zM334 1139q31 31 69.5 68.5t75.5 74.5t60 59q16 18 22 29.5t6 13.5h123q0 -8 27 -43 q12 -14 45 -50t72.5 -76.5t74.5 -75.5h-164l-116 139l-131 -139h-164z" />
<glyph unicode="&#xe3;" horiz-adv-x="1239" d="M82 279q0 143 108.5 225t331.5 82q160 0 256 -32t129 -54q-2 182 -68.5 259t-234.5 77q-121 0 -216 -28t-152.5 -59.5t-71.5 -46.5v41l-21 154q18 8 80 27.5t162 37t236 17.5q258 0 376.5 -109.5t118.5 -337.5v-409q0 -57 13.5 -83t27.5 -40h-250v61l4 39l-4 2 q-68 -61 -176.5 -91.5t-245.5 -30.5q-223 0 -313 80.5t-90 218.5zM262 1119q0 102 47 173.5t158 71.5q68 0 117 -18t87.5 -43t77.5 -43t88 -18q41 0 60.5 23.5t19.5 55.5q0 18 -7 29.5t-13 13.5h104q0 -111 -49 -178t-158 -67q-68 0 -114.5 18.5t-85.5 43t-78 43t-90 18.5 q-80 0 -80 -62q0 -20 7 -36.5t13 -24.5h-104zM289 279q0 -80 62.5 -117t201.5 -37q166 0 260 48t94 122q0 61 -81 104t-251 43q-158 0 -222 -41t-64 -122z" />
<glyph unicode="&#xe4;" horiz-adv-x="1239" d="M82 279q0 143 108.5 225t331.5 82q160 0 256 -32t129 -54q-2 182 -68.5 259t-234.5 77q-121 0 -216 -28t-152.5 -59.5t-71.5 -46.5v41l-21 154q18 8 80 27.5t162 37t236 17.5q258 0 376.5 -109.5t118.5 -337.5v-409q0 -57 13.5 -83t27.5 -40h-250v61l4 39l-4 2 q-68 -61 -176.5 -91.5t-245.5 -30.5q-223 0 -313 80.5t-90 218.5zM289 279q0 -80 62.5 -117t201.5 -37q166 0 260 48t94 122q0 61 -81 104t-251 43q-158 0 -222 -41t-64 -122zM327 1270q0 47 32 80t93 33t93 -33t32 -80q0 -45 -33 -78.5t-92 -33.5t-92 33.5t-33 78.5z M675 1270q0 47 32 80t93 33t93 -33t32 -80q0 -45 -33 -78.5t-92 -33.5t-92 33.5t-33 78.5z" />
<glyph unicode="&#xe5;" horiz-adv-x="1239" d="M82 279q0 143 108.5 225t331.5 82q160 0 256 -32t129 -54q-2 182 -68.5 259t-234.5 77q-121 0 -216 -28t-152.5 -59.5t-71.5 -46.5v41l-21 154q18 8 80 27.5t162 37t236 17.5q258 0 376.5 -109.5t118.5 -337.5v-409q0 -57 13.5 -83t27.5 -40h-250v61l4 39l-4 2 q-68 -61 -176.5 -91.5t-245.5 -30.5q-223 0 -313 80.5t-90 218.5zM289 279q0 -80 62.5 -117t201.5 -37q166 0 260 48t94 122q0 61 -81 104t-251 43q-158 0 -222 -41t-64 -122zM407 1288q0 92 65.5 157.5t158.5 65.5q92 0 157.5 -65.5t65.5 -157.5t-65.5 -157.5t-157.5 -65.5 t-158 65.5t-66 157.5zM522 1288q0 -45 32 -76.5t77 -31.5t76.5 31.5t31.5 76.5t-31.5 77t-76.5 32t-77 -32t-32 -77z" />
<glyph unicode="&#xe6;" horiz-adv-x="1986" d="M82 279q0 143 108.5 225t331.5 82q160 0 256 -32t129 -54q-2 182 -68.5 259t-234.5 77q-106 0 -194 -25t-150.5 -60.5t-95.5 -68.5v61l-21 154q45 27 169 54.5t309 27.5q295 0 411 -148q66 72 166 110t238 38q152 0 245 -41t141 -108.5t65.5 -146.5t17.5 -155v-96 q0 6 -56.5 13.5t-189.5 7.5h-539q0 -152 90 -240t269 -88q154 0 253 38t132 75v-41l20 -136q-45 -27 -158.5 -54t-277.5 -27q-174 0 -281.5 43t-165.5 118q-16 -12 -33.5 -24.5t-35.5 -24.5q-74 -45 -192 -78.5t-255 -33.5q-223 0 -313 80.5t-90 218.5zM289 274 q0 -80 62.5 -114.5t201.5 -34.5q166 0 260 48t94 122q0 61 -81 104t-251 43q-158 0 -222 -43t-64 -125zM1145 629q0 -20 12 -30.5t45 -10.5h498q0 53 -22.5 110.5t-80 97.5t-161.5 40q-133 0 -212 -63.5t-79 -143.5z" />
<glyph unicode="&#xe7;" horiz-adv-x="1146" d="M72 477q0 250 136 375t398 125q160 0 268.5 -20.5t149.5 -38.5v-41l41 -179q-41 43 -155.5 89.5t-288.5 46.5q-88 0 -167 -30t-127 -108t-48 -221q0 -139 51 -216t141 -105.5t205 -28.5q145 0 240.5 45t127.5 88v-41l21 -139q-39 -33 -152.5 -65.5t-285.5 -32.5 q-213 0 -335 65.5t-171 178t-49 253.5zM358 -256q23 -23 74 -47.5t123 -24.5q100 0 100 66q0 45 -51 61.5t-123 16.5l41 184h125l-45 -115q74 -4 130 -44t56 -117q0 -74 -57.5 -124.5t-159.5 -50.5q-84 0 -139 25t-74 47v123z" />
<glyph unicode="&#xe8;" horiz-adv-x="1146" d="M72 477q0 231 132 366.5t392 135.5q152 0 245 -41t141 -108.5t65.5 -146.5t17.5 -155v-96q0 6 -56.5 13.5t-189.5 7.5h-538q0 -152 90 -240t268 -88q154 0 253 38t132 75v-41l20 -136q-45 -27 -158.5 -54t-277.5 -27q-162 0 -266 37.5t-163.5 105t-83 158t-23.5 196.5z M288.5 1514.5q12.5 21.5 46.5 21.5h21q51 0 73.5 -15.5t43.5 -45.5q25 -37 58.5 -92.5t63 -108.5t42.5 -90t-1 -37q-20 0 -59 30.5t-87 78t-96 100.5t-85 98q-33 39 -20.5 60.5zM305 629q0 -20 12 -30.5t45 -10.5h498q0 53 -22.5 110.5t-80 97.5t-161.5 40 q-133 0 -212 -63.5t-79 -143.5z" />
<glyph unicode="&#xe9;" horiz-adv-x="1146" d="M72 477q0 231 132 366.5t392 135.5q152 0 245 -41t141 -108.5t65.5 -146.5t17.5 -155v-96q0 6 -56.5 13.5t-189.5 7.5h-538q0 -152 90 -240t268 -88q154 0 253 38t132 75v-41l20 -136q-45 -27 -158.5 -54t-277.5 -27q-162 0 -266 37.5t-163.5 105t-83 158t-23.5 196.5z M305 629q0 -20 12 -30.5t45 -10.5h498q0 53 -22.5 110.5t-80 97.5t-161.5 40q-133 0 -212 -63.5t-79 -143.5zM462 1157q9 37 30.5 91t48 106.5t45.5 80.5q27 41 56.5 57.5t76.5 16.5h22q70 0 13 -82q-45 -63 -100.5 -135t-105.5 -122t-81 -50q-14 0 -5 37z" />
<glyph unicode="&#xea;" horiz-adv-x="1146" d="M72 477q0 231 132 366.5t392 135.5q152 0 245 -41t141 -108.5t65.5 -146.5t17.5 -155v-96q0 6 -56.5 13.5t-189.5 7.5h-538q0 -152 90 -240t268 -88q154 0 253 38t132 75v-41l20 -136q-45 -27 -158.5 -54t-277.5 -27q-162 0 -266 37.5t-163.5 105t-83 158t-23.5 196.5z M273 1139q31 31 69.5 68.5t75.5 74.5t60 59q16 18 22 29.5t6 13.5h123q0 -8 27 -43q12 -14 45 -50t72.5 -76.5t74.5 -75.5h-164l-116 139l-131 -139h-164zM305 629q0 -20 12 -30.5t45 -10.5h498q0 53 -22.5 110.5t-80 97.5t-161.5 40q-133 0 -212 -63.5t-79 -143.5z" />
<glyph unicode="&#xeb;" horiz-adv-x="1146" d="M72 477q0 231 132 366.5t392 135.5q152 0 245 -41t141 -108.5t65.5 -146.5t17.5 -155v-96q0 6 -56.5 13.5t-189.5 7.5h-538q0 -152 90 -240t268 -88q154 0 253 38t132 75v-41l20 -136q-45 -27 -158.5 -54t-277.5 -27q-162 0 -266 37.5t-163.5 105t-83 158t-23.5 196.5z M266 1270q0 47 32 80t93 33t93 -33t32 -80q0 -45 -33 -78.5t-92 -33.5t-92 33.5t-33 78.5zM305 629q0 -20 12 -30.5t45 -10.5h498q0 53 -22.5 110.5t-80 97.5t-161.5 40q-133 0 -212 -63.5t-79 -143.5zM614 1270q0 47 32 80t93 33t93 -33t32 -80q0 -45 -33 -78.5t-92 -33.5 t-92 33.5t-33 78.5z" />
<glyph unicode="&#xec;" horiz-adv-x="466" d="M-40.5 1514.5q12.5 21.5 46.5 21.5h21q51 0 73.5 -15.5t43.5 -45.5q25 -37 58.5 -92.5t63 -108.5t42.5 -90t-1 -37q-20 0 -59 30.5t-87 78t-96 100.5t-85 98q-33 39 -20.5 60.5zM94 0q14 0 27.5 28.5t13.5 94.5v713q0 66 -13 93t-28 29h250v-835q0 -66 13.5 -94.5 t27.5 -28.5h-291z" />
<glyph unicode="&#xed;" horiz-adv-x="466" d="M94 0q14 0 27.5 28.5t13.5 94.5v713q0 66 -13 93t-28 29h250v-835q0 -66 13.5 -94.5t27.5 -28.5h-291zM132 1157q9 37 30.5 91t48 106.5t45.5 80.5q27 41 56.5 57.5t76.5 16.5h22q70 0 13 -82q-45 -63 -100.5 -135t-105.5 -122t-81 -50q-14 0 -5 37z" />
<glyph unicode="&#xee;" horiz-adv-x="466" d="M-57 1139q31 31 69.5 68.5t75.5 74.5t60 59q16 18 22 29.5t6 13.5h123q0 -8 27 -43q12 -14 45 -50t72.5 -76.5t74.5 -75.5h-164l-116 139l-131 -139h-164zM94 0q14 0 27.5 28.5t13.5 94.5v713q0 66 -13 93t-28 29h250v-835q0 -66 13.5 -94.5t27.5 -28.5h-291z" />
<glyph unicode="&#xef;" horiz-adv-x="466" d="M-64 1270q0 47 32 80t93 33t93 -33t32 -80q0 -45 -33 -78.5t-92 -33.5t-92 33.5t-33 78.5zM94 0q14 0 27.5 28.5t13.5 94.5v713q0 66 -13 93t-28 29h250v-835q0 -66 13.5 -94.5t27.5 -28.5h-291zM284 1270q0 47 32 80t93 33t93 -33t32 -80q0 -45 -33 -78.5t-92 -33.5 t-92 33.5t-33 78.5z" />
<glyph unicode="&#xf0;" horiz-adv-x="1230" d="M72 1327q47 41 160.5 82t273.5 41q184 0 311 -64l111 111l86 -86l-92 -92q102 -90 154 -247t52 -388q0 -246 -67.5 -401.5t-188 -229t-282.5 -73.5q-154 0 -260.5 63t-161.5 172t-55 242q0 223 123.5 338.5t330.5 115.5q86 0 152.5 -24.5t113 -58t66.5 -58.5l4 2l-4 41 q-2 102 -23.5 204.5t-76.5 178.5l-154 -154l-86 86l152 152q-35 23 -80 35t-101 12q-94 0 -177 -29.5t-144.5 -71.5t-95.5 -83v61zM342 457q0 -172 69.5 -252t192.5 -80q145 0 210 91t65 239q0 152 -78 232.5t-217 80.5q-100 0 -171 -67.5t-71 -243.5z" />
<glyph unicode="&#xf1;" horiz-adv-x="1226" d="M94 0q14 0 27.5 28.5t13.5 94.5v692q0 66 -13 93.5t-28 29.5q90 0 156.5 13.5t93.5 27.5v-125l-4 -27l4 -4q45 57 133 106.5t234 49.5q190 0 291.5 -108.5t101.5 -340.5v-407q0 -66 13 -94.5t28 -28.5h-291q14 0 27.5 28.5t13.5 94.5v401q0 121 -30.5 188.5t-85 95.5 t-126.5 28q-76 0 -147.5 -33t-116.5 -104.5t-45 -192.5v-383q0 -66 13.5 -94.5t27.5 -28.5h-291zM242 1119q0 102 47 173.5t158 71.5q68 0 117 -18t87.5 -43t77.5 -43t88 -18q41 0 60.5 23.5t19.5 55.5q0 18 -7 29.5t-13 13.5h104q0 -111 -49 -178t-158 -67 q-68 0 -114.5 18.5t-85.5 43t-78 43t-90 18.5q-80 0 -80 -62q0 -20 7 -36.5t13 -24.5h-104z" />
<glyph unicode="&#xf2;" horiz-adv-x="1200" d="M72 477q0 143 48 256t162.5 179.5t317.5 66.5t317.5 -66.5t162.5 -179t48 -256.5q0 -141 -46 -253.5t-160.5 -178t-321.5 -65.5q-205 0 -320.5 65.5t-161.5 178t-46 253.5zM281 475q0 -109 26.5 -187.5t96 -120.5t196.5 -42t196.5 41t96.5 120t27 191q0 113 -28 193 t-96.5 123t-195.5 43q-125 0 -194.5 -44t-97 -125t-27.5 -192zM319.5 1514.5q12.5 21.5 46.5 21.5h21q51 0 73.5 -15.5t43.5 -45.5q25 -37 58.5 -92.5t63 -108.5t42.5 -90t-1 -37q-20 0 -59 30.5t-87 78t-96 100.5t-85 98q-33 39 -20.5 60.5z" />
<glyph unicode="&#xf3;" horiz-adv-x="1200" d="M72 477q0 143 48 256t162.5 179.5t317.5 66.5t317.5 -66.5t162.5 -179t48 -256.5q0 -141 -46 -253.5t-160.5 -178t-321.5 -65.5q-205 0 -320.5 65.5t-161.5 178t-46 253.5zM281 475q0 -109 26.5 -187.5t96 -120.5t196.5 -42t196.5 41t96.5 120t27 191q0 113 -28 193 t-96.5 123t-195.5 43q-125 0 -194.5 -44t-97 -125t-27.5 -192zM493 1157q9 37 30.5 91t48 106.5t45.5 80.5q27 41 56.5 57.5t76.5 16.5h22q70 0 13 -82q-45 -63 -100.5 -135t-105.5 -122t-81 -50q-14 0 -5 37z" />
<glyph unicode="&#xf4;" horiz-adv-x="1200" d="M72 477q0 143 48 256t162.5 179.5t317.5 66.5t317.5 -66.5t162.5 -179t48 -256.5q0 -141 -46 -253.5t-160.5 -178t-321.5 -65.5q-205 0 -320.5 65.5t-161.5 178t-46 253.5zM281 475q0 -109 26.5 -187.5t96 -120.5t196.5 -42t196.5 41t96.5 120t27 191q0 113 -28 193 t-96.5 123t-195.5 43q-125 0 -194.5 -44t-97 -125t-27.5 -192zM303 1139q31 31 69.5 68.5t75.5 74.5t60 59q16 18 22 29.5t6 13.5h123q0 -8 27 -43q12 -14 45 -50t72.5 -76.5t74.5 -75.5h-164l-116 139l-131 -139h-164z" />
<glyph unicode="&#xf5;" horiz-adv-x="1200" d="M72 477q0 143 48 256t162.5 179.5t317.5 66.5t317.5 -66.5t162.5 -179t48 -256.5q0 -141 -46 -253.5t-160.5 -178t-321.5 -65.5q-205 0 -320.5 65.5t-161.5 178t-46 253.5zM231 1119q0 102 47 173.5t158 71.5q68 0 117 -18t87.5 -43t77.5 -43t88 -18q41 0 60.5 23.5 t19.5 55.5q0 18 -7 29.5t-13 13.5h104q0 -111 -49 -178t-158 -67q-68 0 -114.5 18.5t-85.5 43t-78 43t-90 18.5q-80 0 -80 -62q0 -20 7 -36.5t13 -24.5h-104zM281 475q0 -109 26.5 -187.5t96 -120.5t196.5 -42t196.5 41t96.5 120t27 191q0 113 -28 193t-96.5 123t-195.5 43 q-125 0 -194.5 -44t-97 -125t-27.5 -192z" />
<glyph unicode="&#xf6;" horiz-adv-x="1200" d="M72 477q0 143 48 256t162.5 179.5t317.5 66.5t317.5 -66.5t162.5 -179t48 -256.5q0 -141 -46 -253.5t-160.5 -178t-321.5 -65.5q-205 0 -320.5 65.5t-161.5 178t-46 253.5zM281 475q0 -109 26.5 -187.5t96 -120.5t196.5 -42t196.5 41t96.5 120t27 191q0 113 -28 193 t-96.5 123t-195.5 43q-125 0 -194.5 -44t-97 -125t-27.5 -192zM296 1270q0 47 32 80t93 33t93 -33t32 -80q0 -45 -33 -78.5t-92 -33.5t-92 33.5t-33 78.5zM644 1270q0 47 32 80t93 33t93 -33t32 -80q0 -45 -33 -78.5t-92 -33.5t-92 33.5t-33 78.5z" />
<glyph unicode="&#xf7;" horiz-adv-x="819" d="M61 553v123h779v-123h-779zM342 303q0 39 26.5 66t77.5 27q50 0 76.5 -27t26.5 -66q0 -37 -27.5 -65t-75.5 -28q-49 0 -76.5 28t-27.5 65zM342 928q0 39 26.5 66t77.5 27q50 0 76.5 -27t26.5 -66q0 -37 -27.5 -65t-75.5 -28q-49 0 -76.5 28t-27.5 65z" />
<glyph unicode="&#xf8;" horiz-adv-x="1200" d="M72 477q0 143 48 256t162.5 179.5t317.5 66.5t317.5 -66.5t162.5 -179t48 -256.5q0 -141 -46 -253.5t-160.5 -178t-321.5 -65.5q-205 0 -320.5 65.5t-161.5 178t-46 253.5zM207 112v148l790 582v-148zM281 475q0 -109 26.5 -187.5t96 -120.5t196.5 -42t196.5 41t96.5 120 t27 191q0 113 -28 193t-96.5 123t-195.5 43q-125 0 -194.5 -44t-97 -125t-27.5 -192z" />
<glyph unicode="&#xf9;" horiz-adv-x="1228" d="M94 958h293q-14 0 -29.5 -28.5t-15.5 -93.5v-410q0 -174 61.5 -237.5t161.5 -63.5t174 49t116 135t42 195v332q0 66 -13.5 93t-27.5 29h250v-835q0 -66 13.5 -94.5t27.5 -28.5h-250v123l4 41l-4 4q-16 -33 -62.5 -77t-122 -77.5t-184.5 -33.5q-119 0 -208 41.5t-137 145 t-48 288.5v381q0 66 -13 94t-28 28zM340.5 1514.5q12.5 21.5 46.5 21.5h21q51 0 73.5 -15.5t43.5 -45.5q25 -37 58.5 -92.5t63 -108.5t42.5 -90t-1 -37q-20 0 -59 30.5t-87 78t-96 100.5t-85 98q-33 39 -20.5 60.5z" />
<glyph unicode="&#xfa;" horiz-adv-x="1228" d="M94 958h293q-14 0 -29.5 -28.5t-15.5 -93.5v-410q0 -174 61.5 -237.5t161.5 -63.5t174 49t116 135t42 195v332q0 66 -13.5 93t-27.5 29h250v-835q0 -66 13.5 -94.5t27.5 -28.5h-250v123l4 41l-4 4q-16 -33 -62.5 -77t-122 -77.5t-184.5 -33.5q-119 0 -208 41.5t-137 145 t-48 288.5v381q0 66 -13 94t-28 28zM513 1157q9 37 30.5 91t48 106.5t45.5 80.5q27 41 56.5 57.5t76.5 16.5h22q70 0 13 -82q-45 -63 -100.5 -135t-105.5 -122t-81 -50q-14 0 -5 37z" />
<glyph unicode="&#xfb;" horiz-adv-x="1228" d="M94 958h293q-14 0 -29.5 -28.5t-15.5 -93.5v-410q0 -174 61.5 -237.5t161.5 -63.5t174 49t116 135t42 195v332q0 66 -13.5 93t-27.5 29h250v-835q0 -66 13.5 -94.5t27.5 -28.5h-250v123l4 41l-4 4q-16 -33 -62.5 -77t-122 -77.5t-184.5 -33.5q-119 0 -208 41.5t-137 145 t-48 288.5v381q0 66 -13 94t-28 28zM324 1139q31 31 69.5 68.5t75.5 74.5t60 59q16 18 22 29.5t6 13.5h123q0 -8 27 -43q12 -14 45 -50t72.5 -76.5t74.5 -75.5h-164l-116 139l-131 -139h-164z" />
<glyph unicode="&#xfc;" horiz-adv-x="1228" d="M94 958h293q-14 0 -29.5 -28.5t-15.5 -93.5v-410q0 -174 61.5 -237.5t161.5 -63.5t174 49t116 135t42 195v332q0 66 -13.5 93t-27.5 29h250v-835q0 -66 13.5 -94.5t27.5 -28.5h-250v123l4 41l-4 4q-16 -33 -62.5 -77t-122 -77.5t-184.5 -33.5q-119 0 -208 41.5t-137 145 t-48 288.5v381q0 66 -13 94t-28 28zM317 1270q0 47 32 80t93 33t93 -33t32 -80q0 -45 -33 -78.5t-92 -33.5t-92 33.5t-33 78.5zM665 1270q0 47 32 80t93 33t93 -33t32 -80q0 -45 -33 -78.5t-92 -33.5t-92 33.5t-33 78.5z" />
<glyph unicode="&#xfd;" horiz-adv-x="1114" d="M-180 -428l41 215v61q14 -43 46 -91t81 -80.5t110 -32.5q104 0 165 61.5t114 163.5q41 82 51 113q-12 16 -39 75.5t-63.5 144.5t-76.5 181t-79 186t-69.5 160t-47.5 100q-35 66 -63.5 96.5t-40.5 32.5h334q-16 0 -21.5 -29.5t21.5 -99.5q16 -39 44.5 -111.5t63.5 -163.5 t72 -184.5t67 -172.5h2q33 84 72 180t77 188t67.5 164t44.5 105q29 66 22.5 94t-22.5 30h321q-12 -2 -37.5 -29.5t-58.5 -92.5q-18 -35 -56 -119t-87.5 -192.5t-100.5 -224.5t-96 -217t-76 -167q-94 -207 -209 -311.5t-287 -104.5q-123 0 -194.5 24.5t-91.5 47.5zM407 1157 q9 37 30.5 91t48 106.5t45.5 80.5q27 41 56.5 57.5t76.5 16.5h22q70 0 13 -82q-45 -63 -100.5 -135t-105.5 -122t-81 -50q-14 0 -5 37z" />
<glyph unicode="&#xfe;" horiz-adv-x="1243" d="M94 -455q14 0 27.5 29t13.5 94v1620q0 66 -13 93.5t-28 29.5h250v-493l-4 -39l4 -5q41 39 124 72t196 33q190 0 300.5 -66.5t158.5 -179t48 -256.5q0 -141 -47 -253.5t-157.5 -178t-302.5 -65.5q-113 0 -190 26.5t-130 73.5l-4 -2l4 -39v-371q0 -66 13.5 -94.5 t27.5 -28.5h-291zM344 475q0 -100 25.5 -180t90 -125t183.5 -45q127 0 196.5 41t96.5 120t27 191q0 113 -28 193t-96.5 123t-195.5 43q-123 0 -187.5 -49.5t-88 -131.5t-23.5 -180z" />
<glyph unicode="&#xff;" horiz-adv-x="1114" d="M-180 -428l41 215v61q14 -43 46 -91t81 -80.5t110 -32.5q104 0 165 61.5t114 163.5q41 82 51 113q-12 16 -39 75.5t-63.5 144.5t-76.5 181t-79 186t-69.5 160t-47.5 100q-35 66 -63.5 96.5t-40.5 32.5h334q-16 0 -21.5 -29.5t21.5 -99.5q16 -39 44.5 -111.5t63.5 -163.5 t72 -184.5t67 -172.5h2q33 84 72 180t77 188t67.5 164t44.5 105q29 66 22.5 94t-22.5 30h321q-12 -2 -37.5 -29.5t-58.5 -92.5q-18 -35 -56 -119t-87.5 -192.5t-100.5 -224.5t-96 -217t-76 -167q-94 -207 -209 -311.5t-287 -104.5q-123 0 -194.5 24.5t-91.5 47.5zM210 1270 q0 47 32 80t93 33t93 -33t32 -80q0 -45 -33 -78.5t-92 -33.5t-92 33.5t-33 78.5zM558 1270q0 47 32 80t93 33t93 -33t32 -80q0 -45 -33 -78.5t-92 -33.5t-92 33.5t-33 78.5z" />
<glyph unicode="&#x152;" horiz-adv-x="2332" d="M92 614q0 190 72 333t227.5 222.5t403.5 79.5q96 0 174 -6t133 -14h1106v-41l41 -197q-51 23 -180.5 48.5t-311.5 25.5h-346q-61 0 -72.5 -9t-11.5 -52v-234q0 -45 11.5 -53t70.5 -8h338q119 0 191.5 13t95.5 28q-14 -39 -27.5 -99.5t-13.5 -105.5h-584q-59 0 -70.5 -7.5 t-11.5 -54.5v-254q0 -47 10.5 -55t71.5 -8h596q119 0 191.5 27.5t95.5 54.5l-41 -185v-63h-1180q-53 -10 -121.5 -15t-154.5 -5q-352 0 -527.5 152.5t-175.5 481.5zM322 614q0 -137 44 -242.5t159.5 -166t332.5 -60.5q74 0 133.5 11.5t106.5 29.5v854q-55 18 -130 31.5 t-169 13.5q-182 0 -286.5 -60t-147.5 -167t-43 -244z" />
<glyph unicode="&#x153;" horiz-adv-x="1998" d="M72 477q0 143 48 256t162.5 179.5t317.5 66.5t317.5 -66.5t162.5 -179t48 -256.5q0 -141 -46 -253.5t-160.5 -178t-321.5 -65.5q-205 0 -320.5 65.5t-161.5 178t-46 253.5zM281 475q0 -109 26.5 -187.5t96 -120.5t196.5 -42t196.5 41t96.5 120t27 191q0 113 -28 193 t-96.5 123t-195.5 43q-125 0 -194.5 -44t-97 -125t-27.5 -192zM924 477q0 231 132 366.5t392 135.5q152 0 245 -41t141 -108.5t65.5 -146.5t17.5 -155v-96q0 6 -56.5 13.5t-189.5 7.5h-538q0 -152 90 -240t268 -88q154 0 253 38t132 75v-41l20 -136q-45 -27 -158.5 -54 t-277.5 -27q-162 0 -266 37.5t-163.5 105t-83 158t-23.5 196.5zM1157 629q0 -20 12 -30.5t45 -10.5h498q0 53 -22.5 110.5t-80 97.5t-161.5 40q-133 0 -212 -63.5t-79 -143.5z" />
<glyph unicode="&#x178;" horiz-adv-x="1458" d="M10 1229h400q-14 -2 -10.5 -31t51.5 -96q29 -39 78 -107.5t104 -141.5t98 -132h2q43 53 97.5 123.5t106.5 141.5t85 120q47 70 51 96.5t-10 26.5h385q-10 0 -45 -27.5t-92 -93.5q-117 -135 -232.5 -270.5t-232.5 -270.5v-444q0 -68 13 -95.5t28 -27.5h-322 q16 0 33.5 27.5t17.5 95.5v444q-57 68 -124.5 147t-133 155.5t-119 138t-81.5 94.5q-59 66 -97 95.5t-51 31.5zM425 1540q0 47 32 80t93 33t93 -33t32 -80q0 -45 -33 -78.5t-92 -33.5t-92 33.5t-33 78.5zM773 1540q0 47 32 80t93 33t93 -33t32 -80q0 -45 -33 -78.5 t-92 -33.5t-92 33.5t-33 78.5z" />
<glyph unicode="&#x2c6;" horiz-adv-x="698" d="M62 1139q31 31 69.5 68.5t75.5 74.5t60 59q16 18 22 29.5t6 13.5h123q0 -8 27 -43q12 -14 45 -50t72.5 -76.5t74.5 -75.5h-164l-116 139l-131 -139h-164z" />
<glyph unicode="&#x2dc;" horiz-adv-x="862" d="M61 1139q0 102 47 173.5t158 71.5q68 0 117 -18t87.5 -43t77.5 -43t88 -18q41 0 60.5 23.5t19.5 55.5q0 18 -7 29.5t-13 13.5h104q0 -111 -49 -178t-158 -67q-68 0 -114.5 18.5t-85.5 43t-78 43t-90 18.5q-80 0 -80 -62q0 -20 7 -36.5t13 -24.5h-104z" />
<glyph unicode="&#x2000;" horiz-adv-x="903" />
<glyph unicode="&#x2001;" horiz-adv-x="1806" />
<glyph unicode="&#x2002;" horiz-adv-x="903" />
<glyph unicode="&#x2003;" horiz-adv-x="1806" />
<glyph unicode="&#x2004;" horiz-adv-x="602" />
<glyph unicode="&#x2005;" horiz-adv-x="451" />
<glyph unicode="&#x2006;" horiz-adv-x="301" />
<glyph unicode="&#x2007;" horiz-adv-x="301" />
<glyph unicode="&#x2008;" horiz-adv-x="225" />
<glyph unicode="&#x2009;" horiz-adv-x="361" />
<glyph unicode="&#x200a;" horiz-adv-x="100" />
<glyph unicode="&#x2010;" horiz-adv-x="770" d="M61 410q14 23 27.5 63.5t13.5 79.5h402q104 0 152.5 7t52.5 13q-14 -20 -27.5 -60t-13.5 -83h-361q-113 0 -172.5 -7t-73.5 -13z" />
<glyph unicode="&#x2011;" horiz-adv-x="770" d="M61 410q14 23 27.5 63.5t13.5 79.5h402q104 0 152.5 7t52.5 13q-14 -20 -27.5 -60t-13.5 -83h-361q-113 0 -172.5 -7t-73.5 -13z" />
<glyph unicode="&#x2012;" horiz-adv-x="770" d="M61 410q14 23 27.5 63.5t13.5 79.5h402q104 0 152.5 7t52.5 13q-14 -20 -27.5 -60t-13.5 -83h-361q-113 0 -172.5 -7t-73.5 -13z" />
<glyph unicode="&#x2013;" horiz-adv-x="1138" d="M61 410q14 23 27.5 63.5t13.5 79.5h770q104 0 152.5 7t52.5 13q-14 -20 -27.5 -60t-13.5 -83h-729q-113 0 -172.5 -7t-73.5 -13z" />
<glyph unicode="&#x2014;" horiz-adv-x="1835" d="M61 410q14 23 27.5 63.5t13.5 79.5h1467q104 0 152 7t53 13q-14 -20 -27.5 -60t-13.5 -83h-1426q-113 0 -172.5 -7t-73.5 -13z" />
<glyph unicode="&#x2018;" horiz-adv-x="512" d="M102 1167q0 84 41 145.5t103 96.5t123 45l41 -72q-55 -14 -99.5 -56t-44.5 -99t32 -79t95 -22v-51q0 -47 -22.5 -80t-83.5 -33q-98 0 -141.5 63.5t-43.5 141.5z" />
<glyph unicode="&#x2019;" horiz-adv-x="512" d="M102 1055q55 14 99.5 56t44.5 99t-32 79t-95 22v51q0 47 22.5 80t83.5 33q98 0 141.5 -63.5t43.5 -141.5q0 -84 -41 -145.5t-103 -96.5t-123 -45z" />
<glyph unicode="&#x201a;" horiz-adv-x="512" d="M102 -256q55 14 99.5 56t44.5 99t-32 79t-95 22v51q0 47 22.5 80t83.5 33q98 0 141.5 -63.5t43.5 -141.5q0 -84 -41 -145.5t-103 -96.5t-123 -45z" />
<glyph unicode="&#x201c;" horiz-adv-x="880" d="M102 1167q0 84 41 145.5t103 96.5t123 45l41 -72q-55 -14 -99.5 -56t-44.5 -99t32 -79t95 -22v-51q0 -47 -22.5 -80t-83.5 -33q-98 0 -141.5 63.5t-43.5 141.5zM471 1167q0 84 41 145.5t103 96.5t123 45l41 -72q-55 -14 -99.5 -56t-44.5 -99t32 -79t95 -22v-51 q0 -47 -22.5 -80t-83.5 -33q-98 0 -141.5 63.5t-43.5 141.5z" />
<glyph unicode="&#x201d;" horiz-adv-x="880" d="M102 1055q55 14 99.5 56t44.5 99t-32 79t-95 22v51q0 47 22.5 80t83.5 33q98 0 141.5 -63.5t43.5 -141.5q0 -84 -41 -145.5t-103 -96.5t-123 -45zM471 1055q55 14 99.5 56t44.5 99t-32 79t-95 22v51q0 47 22.5 80t83.5 33q98 0 141.5 -63.5t43.5 -141.5q0 -84 -41 -145.5 t-103 -96.5t-123 -45z" />
<glyph unicode="&#x201e;" horiz-adv-x="880" d="M102 -256q55 14 99.5 56t44.5 99t-32 79t-95 22v51q0 47 22.5 80t83.5 33q98 0 141.5 -63.5t43.5 -141.5q0 -84 -41 -145.5t-103 -96.5t-123 -45zM471 -256q55 14 99.5 56t44.5 99t-32 79t-95 22v51q0 47 22.5 80t83.5 33q98 0 141.5 -63.5t43.5 -141.5q0 -84 -41 -145.5 t-103 -96.5t-123 -45z" />
<glyph unicode="&#x2022;" horiz-adv-x="620" d="M122 544q0 70 48 120t140 50q91 0 139 -50t48 -120q0 -68 -49.5 -118t-137.5 -50q-89 0 -138.5 50t-49.5 118z" />
<glyph unicode="&#x2026;" horiz-adv-x="1273" d="M102 92q0 47 32 80t93 33t93 -33t32 -80q0 -45 -33 -78.5t-92 -33.5t-92 33.5t-33 78.5zM512 92q0 47 32 80t93 33t93 -33t32 -80q0 -45 -33 -78.5t-92 -33.5t-92 33.5t-33 78.5zM921 92q0 47 32 80t93 33t93 -33t32 -80q0 -45 -33 -78.5t-92 -33.5t-92 33.5t-33 78.5z " />
<glyph unicode="&#x202f;" horiz-adv-x="361" />
<glyph unicode="&#x2039;" horiz-adv-x="634" d="M103 614l266 -348h164l-267 348l267 349h-164z" />
<glyph unicode="&#x203a;" horiz-adv-x="634" d="M102 266l267 348l-267 349h164l266 -349l-266 -348h-164z" />
<glyph unicode="&#x205f;" horiz-adv-x="451" />
<glyph unicode="&#x20ac;" horiz-adv-x="1361" d="M102 430q14 23 27.5 64t13.5 79h144v41q0 31 2 62q-84 -2 -129 -8t-58 -13q14 23 27.5 64t13.5 80h158q35 207 164 328.5t377 121.5q178 0 283.5 -33.5t134.5 -68.5l-21 -143v-82q-23 35 -72 72.5t-119.5 64t-160.5 26.5q-154 0 -242 -62t-115 -224h179q94 0 144 7t60 13 q-14 -20 -27.5 -60t-13.5 -83h-354q-2 -29 -2 -62v-41h131q94 0 144.5 7.5t60.5 13.5q-14 -20 -27.5 -60t-13.5 -83h-285q25 -176 119 -241t281 -65q109 0 191.5 35t121.5 68v-187q-33 -27 -129 -54t-248 -27q-258 0 -395 118.5t-170 352.5q-88 -2 -135.5 -8.5t-59.5 -12.5z " />
<glyph unicode="&#x2122;" horiz-adv-x="1081" d="M20 1247l13 70v14h358v-14l12 -70q-6 8 -28.5 15.5t-57.5 7.5h-38q-20 0 -23.5 -2t-3.5 -17v-256q0 -37 14 -37h-108q14 0 14 37v256q0 14 -3 16.5t-24 2.5h-39q-35 0 -57 -7.5t-29 -15.5zM446 958q14 0 15 37v297q0 39 -15 39h127q-6 0 13 -39q8 -14 27.5 -57t44 -96.5 t44.5 -100.5h3q23 47 46 101.5t42.5 97.5t25.5 55q14 33 15 39h124q-12 0 -12 -39v-297q0 -37 12 -37h-100q12 0 12 37v256h-2q-29 -63 -58.5 -126.5t-57.5 -129.5q-18 -37 -7 -37h-86q10 0 -6 37q-29 66 -58.5 129.5t-57.5 126.5h-2v-256q0 -37 14 -37h-103z" />
<glyph unicode="&#x25fc;" horiz-adv-x="962" d="M0 0v963h963v-963h-963z" />
<glyph unicode="&#xfb03;" horiz-adv-x="1654" d="M0 815v143h205l2 5q-6 10 -24.5 68.5t-18.5 137.5q0 162 92 234t256 72q74 0 139.5 -22.5t116.5 -56.5t78 -65v-143q-33 47 -115 94t-192 47q-86 0 -126 -38t-40 -144v-127q0 -45 8 -53.5t55 -8.5h332v-143h-375v-692q0 -66 14.5 -94.5t26.5 -28.5h-291q14 0 27.5 28.5 t13.5 94.5v692h-184z" />
<glyph unicode="&#xfb04;" horiz-adv-x="1716" d="M0 815v143h205l2 5q-6 10 -24.5 68.5t-18.5 137.5q0 162 92 234t256 72q74 0 139.5 -22.5t116.5 -56.5t78 -65v-143q-33 47 -115 94t-192 47q-86 0 -126 -38t-40 -144v-127q0 -45 8 -53.5t55 -8.5h332v-143h-375v-692q0 -66 14.5 -94.5t26.5 -28.5h-291q14 0 27.5 28.5 t13.5 94.5v692h-184z" />
</font>
</defs>
</svg>
